<svg id="svg" version="1.1" xmlns="http://www.w3.org/2000/svg" xmlns:xlink="http://www.w3.org/1999/xlink" width="400" height="398.59154929577466" viewBox="0, 0, 400,398.59154929577466"><g id="svgg"><path id="path0" d="M187.836 46.700 C 186.849 46.887,182.991 47.227,179.262 47.455 C 169.712 48.039,167.498 48.271,167.498 48.688 C 167.498 48.889,166.690 49.053,165.703 49.053 C 164.716 49.053,163.908 49.206,163.908 49.394 C 163.908 49.582,162.787 49.844,161.416 49.978 C 158.674 50.245,157.045 50.716,152.941 52.429 C 150.355 53.508,149.551 53.953,149.551 54.305 C 149.551 54.487,149.312 54.636,149.021 54.636 C 148.729 54.636,148.259 55.130,147.977 55.733 C 147.695 56.336,147.281 57.180,147.058 57.609 C 146.770 58.160,146.784 58.433,147.104 58.540 C 147.353 58.623,147.557 59.093,147.557 59.585 C 147.557 60.516,149.055 62.213,149.876 62.213 C 150.136 62.213,150.349 62.393,150.349 62.612 C 150.349 62.832,150.708 63.011,151.147 63.011 C 151.585 63.011,151.946 63.146,151.947 63.310 C 151.952 63.793,154.002 64.619,155.833 64.876 C 156.765 65.006,157.527 65.268,157.527 65.458 C 157.527 65.648,158.156 65.803,158.923 65.803 C 159.691 65.803,160.319 65.982,160.319 66.201 C 160.319 66.421,160.932 66.600,161.682 66.600 C 162.431 66.600,163.104 66.769,163.177 66.976 C 163.250 67.183,165.150 67.478,167.398 67.631 C 169.646 67.785,171.486 68.064,171.486 68.252 C 171.486 68.440,172.921 68.594,174.676 68.594 C 176.537 68.594,177.866 68.760,177.866 68.993 C 177.866 69.236,179.653 69.392,182.429 69.392 C 185.041 69.392,187.097 69.562,187.238 69.791 C 187.395 70.045,192.751 70.189,201.994 70.189 C 211.237 70.189,216.593 70.045,216.750 69.791 C 216.891 69.563,218.939 69.392,221.535 69.392 C 224.131 69.392,226.180 69.221,226.321 68.993 C 226.457 68.774,227.903 68.594,229.535 68.594 C 231.167 68.594,232.502 68.436,232.502 68.243 C 232.502 68.050,234.387 67.763,236.690 67.606 C 238.993 67.449,240.978 67.159,241.100 66.961 C 241.223 66.762,241.941 66.600,242.696 66.600 C 243.450 66.600,244.068 66.421,244.068 66.201 C 244.068 65.982,244.696 65.803,245.464 65.803 C 246.231 65.803,246.859 65.640,246.859 65.441 C 246.859 65.242,247.757 64.956,248.853 64.806 C 249.950 64.655,250.847 64.369,250.847 64.170 C 250.847 63.971,251.206 63.809,251.645 63.809 C 252.084 63.809,252.443 63.629,252.443 63.410 C 252.443 63.190,252.610 63.011,252.814 63.011 C 253.500 63.011,255.998 61.222,256.015 60.718 C 256.024 60.444,256.211 60.219,256.431 60.219 C 257.547 60.219,256.831 56.427,255.481 55.188 C 253.431 53.306,252.355 52.642,251.357 52.642 C 250.857 52.642,250.449 52.463,250.449 52.243 C 250.449 52.024,250.090 51.844,249.651 51.844 C 249.212 51.844,248.853 51.665,248.853 51.446 C 248.853 51.226,248.225 51.047,247.458 51.047 C 246.690 51.047,246.062 50.878,246.062 50.672 C 246.062 50.466,244.806 50.174,243.270 50.022 C 241.735 49.871,240.479 49.591,240.479 49.400 C 240.479 49.209,239.492 49.053,238.285 49.053 C 237.079 49.053,236.092 48.873,236.092 48.654 C 236.092 48.435,235.192 48.255,234.092 48.255 C 232.993 48.255,231.781 48.081,231.400 47.868 C 229.642 46.885,192.163 45.880,187.836 46.700 M208.426 53.021 C 217.428 56.438,210.310 63.641,199.402 62.153 C 191.653 61.095,189.052 56.320,194.695 53.510 C 198.263 51.733,204.453 51.513,208.426 53.021 M176.873 75.368 C 176.715 75.624,172.978 75.773,166.676 75.773 C 161.206 75.773,156.730 75.924,156.730 76.109 C 156.730 76.294,152.265 76.570,146.809 76.721 C 141.353 76.873,136.284 77.170,135.545 77.382 C 134.807 77.593,132.631 77.767,130.711 77.767 C 128.648 77.767,127.218 77.930,127.218 78.166 C 127.218 78.398,125.889 78.564,124.028 78.564 C 122.167 78.564,120.837 78.730,120.837 78.963 C 120.837 79.191,119.641 79.362,118.046 79.362 C 116.510 79.362,115.254 79.516,115.254 79.704 C 115.254 79.892,113.415 80.171,111.167 80.325 C 108.918 80.478,107.019 80.773,106.946 80.980 C 106.873 81.187,106.020 81.356,105.052 81.356 C 104.083 81.356,103.290 81.535,103.290 81.755 C 103.290 81.974,102.662 82.154,101.894 82.154 C 101.127 82.154,100.499 82.333,100.499 82.552 C 100.499 82.772,100.005 82.955,99.402 82.960 C 96.629 82.982,90.945 87.410,92.867 88.051 C 93.116 88.134,93.320 88.464,93.320 88.785 C 93.320 90.064,96.951 92.522,98.840 92.522 C 99.288 92.522,99.765 92.702,99.900 92.921 C 100.036 93.141,100.664 93.320,101.296 93.320 C 101.928 93.320,102.556 93.500,102.692 93.719 C 102.827 93.938,103.631 94.118,104.477 94.118 C 105.323 94.118,106.075 94.287,106.148 94.494 C 106.221 94.700,108.121 94.995,110.369 95.149 C 112.617 95.302,114.457 95.582,114.457 95.770 C 114.457 95.958,115.623 96.112,117.049 96.112 C 118.511 96.112,119.641 96.286,119.641 96.510 C 119.641 96.739,120.846 96.909,122.459 96.909 C 124.009 96.909,125.586 97.075,125.963 97.277 C 126.341 97.479,130.277 97.774,134.711 97.933 C 139.144 98.091,142.772 98.375,142.772 98.562 C 142.772 98.750,145.464 98.903,148.754 98.903 C 152.476 98.903,154.736 99.054,154.736 99.302 C 154.736 99.556,157.918 99.701,163.486 99.701 C 168.889 99.701,172.330 99.853,172.483 100.100 C 172.643 100.359,182.449 100.499,200.598 100.499 C 218.747 100.499,228.553 100.359,228.714 100.100 C 228.866 99.853,232.299 99.701,237.687 99.701 C 243.074 99.701,246.508 99.548,246.660 99.302 C 246.807 99.065,249.323 98.903,252.865 98.903 C 256.142 98.903,258.824 98.750,258.824 98.564 C 258.824 98.377,262.357 98.096,266.676 97.939 C 270.995 97.782,274.842 97.486,275.224 97.281 C 275.607 97.077,277.177 96.909,278.714 96.909 C 280.251 96.909,281.619 96.730,281.755 96.510 C 281.890 96.291,283.057 96.112,284.347 96.112 C 285.637 96.112,286.789 95.956,286.907 95.765 C 287.025 95.574,288.918 95.291,291.114 95.135 C 293.310 94.979,295.209 94.687,295.334 94.485 C 295.458 94.283,296.167 94.118,296.909 94.118 C 297.651 94.118,298.369 93.938,298.504 93.719 C 298.640 93.500,299.279 93.320,299.924 93.320 C 300.569 93.320,301.097 93.164,301.097 92.972 C 301.097 92.781,301.812 92.510,302.687 92.370 C 304.453 92.088,306.982 90.798,307.750 89.789 C 308.886 88.297,308.045 84.945,306.536 84.945 C 306.177 84.945,305.882 84.808,305.882 84.640 C 305.882 84.224,302.875 82.951,301.892 82.951 C 301.454 82.951,301.097 82.772,301.097 82.552 C 301.097 82.333,300.479 82.154,299.724 82.154 C 298.970 82.154,298.241 81.974,298.106 81.755 C 297.970 81.535,297.188 81.356,296.367 81.356 C 295.547 81.356,294.703 81.183,294.491 80.972 C 294.280 80.761,292.360 80.465,290.224 80.315 C 288.088 80.165,286.341 79.889,286.341 79.702 C 286.341 79.515,285.095 79.362,283.573 79.362 C 282.050 79.362,280.694 79.182,280.558 78.963 C 280.423 78.744,278.987 78.564,277.368 78.564 C 275.749 78.564,274.313 78.385,274.177 78.166 C 274.042 77.946,272.370 77.767,270.462 77.767 C 268.555 77.767,266.389 77.593,265.651 77.382 C 264.912 77.170,259.844 76.873,254.387 76.721 C 248.931 76.570,244.467 76.300,244.467 76.122 C 244.467 75.428,177.299 74.678,176.873 75.368 M131.605 105.683 C 131.605 105.937,128.223 106.082,122.257 106.082 C 117.115 106.082,112.814 106.234,112.700 106.420 C 112.585 106.606,108.251 106.886,103.068 107.042 C 97.886 107.198,93.202 107.494,92.659 107.701 C 92.117 107.907,90.259 108.076,88.532 108.076 C 86.804 108.076,85.280 108.255,85.145 108.475 C 85.009 108.694,83.652 108.873,82.130 108.873 C 80.550 108.873,79.362 109.045,79.362 109.272 C 79.362 109.493,78.306 109.671,76.993 109.671 C 75.690 109.671,74.524 109.832,74.403 110.028 C 74.281 110.224,72.744 110.512,70.987 110.668 C 69.230 110.824,67.693 111.112,67.571 111.308 C 67.450 111.504,66.823 111.665,66.178 111.665 C 65.533 111.665,65.005 111.844,65.005 112.064 C 65.005 112.283,64.556 112.463,64.008 112.463 C 63.460 112.463,63.011 112.642,63.011 112.861 C 63.011 113.081,62.769 113.260,62.474 113.260 C 61.553 113.260,60.339 114.600,60.044 115.941 C 59.739 117.331,61.100 119.242,62.395 119.242 C 62.734 119.242,63.011 119.422,63.011 119.641 C 63.011 119.860,63.370 120.040,63.809 120.040 C 64.247 120.040,64.606 120.219,64.606 120.439 C 64.606 120.658,65.234 120.837,66.002 120.837 C 66.770 120.837,67.398 120.998,67.398 121.194 C 67.398 121.391,68.071 121.648,68.893 121.767 C 69.716 121.885,71.286 122.163,72.383 122.383 C 73.480 122.604,75.319 122.795,76.471 122.808 C 77.622 122.821,78.564 123.011,78.564 123.230 C 78.564 123.458,79.761 123.629,81.356 123.629 C 82.951 123.629,84.148 123.800,84.148 124.028 C 84.148 124.259,85.419 124.427,87.165 124.427 C 88.824 124.427,90.496 124.595,90.881 124.801 C 91.265 125.006,95.830 125.303,101.024 125.459 C 106.219 125.616,110.469 125.896,110.469 126.082 C 110.469 126.268,110.917 126.421,111.466 126.421 C 112.014 126.421,112.463 126.215,112.463 125.964 C 112.463 125.626,115.272 125.582,123.330 125.794 C 185.063 127.420,241.031 123.652,246.828 117.481 C 250.656 113.406,235.811 110.108,203.589 107.875 C 190.267 106.951,188.634 106.793,188.634 106.423 C 188.634 106.235,186.042 106.082,182.875 106.082 C 179.466 106.082,177.015 105.919,176.869 105.683 C 176.710 105.425,168.690 105.284,154.114 105.284 C 139.374 105.284,131.605 105.422,131.605 105.683 M85.145 136.790 C 85.003 137.018,82.735 137.206,79.837 137.228 C 77.053 137.250,72.981 137.435,70.788 137.639 C 68.594 137.843,65.678 138.110,64.307 138.231 C 62.936 138.353,61.815 138.617,61.815 138.818 C 61.815 139.018,60.828 139.182,59.621 139.182 C 58.415 139.182,57.428 139.362,57.428 139.581 C 57.428 139.801,56.922 139.980,56.304 139.980 C 53.923 139.980,49.150 141.703,47.452 143.175 C 45.188 145.139,46.912 148.849,50.349 149.409 C 51.171 149.544,51.844 149.810,51.844 150.001 C 51.844 150.192,52.293 150.349,52.841 150.349 C 53.390 150.349,53.838 150.510,53.838 150.706 C 53.838 150.902,54.511 151.164,55.334 151.288 C 56.157 151.413,57.906 151.706,59.222 151.939 C 63.791 152.751,66.814 153.100,69.468 153.120 C 70.936 153.131,72.247 153.320,72.383 153.539 C 72.683 154.025,74.576 154.075,74.576 153.598 C 74.576 153.410,82.697 153.344,92.622 153.451 C 126.012 153.809,147.512 151.250,150.590 146.552 C 153.805 141.645,135.888 138.238,103.716 137.639 C 92.314 137.427,88.349 137.230,88.230 136.872 C 88.036 136.293,85.494 136.225,85.145 136.790 M47.657 167.943 C 43.081 168.461,41.483 168.758,41.250 169.135 C 41.129 169.331,40.592 169.492,40.056 169.492 C 39.521 169.492,39.083 169.671,39.083 169.890 C 39.083 170.110,38.658 170.289,38.140 170.289 C 36.549 170.289,34.536 172.375,34.536 174.023 C 34.536 175.482,35.586 177.069,36.552 177.069 C 36.847 177.069,37.090 177.203,37.092 177.368 C 37.096 177.755,39.052 178.664,39.880 178.664 C 40.231 178.664,40.701 178.846,40.923 179.069 C 41.146 179.291,43.066 179.587,45.190 179.727 C 47.315 179.867,49.053 180.133,49.053 180.319 C 49.053 180.506,51.924 180.658,55.434 180.658 C 58.943 180.658,61.815 180.501,61.815 180.308 C 61.815 180.116,63.564 179.746,65.703 179.485 C 75.003 178.353,79.761 176.509,79.761 174.037 C 79.761 171.641,74.997 169.955,64.108 168.500 C 63.066 168.360,62.213 168.078,62.213 167.872 C 62.213 167.428,51.750 167.479,47.657 167.943 M34.098 195.813 C 33.962 196.032,33.144 196.211,32.280 196.211 C 31.415 196.211,30.708 196.391,30.708 196.610 C 30.708 196.830,30.259 197.009,29.711 197.009 C 29.163 197.009,28.714 197.176,28.714 197.381 C 28.714 197.585,28.400 197.854,28.016 197.979 C 26.279 198.540,26.363 202.592,28.112 202.592 C 28.406 202.592,28.723 202.817,28.814 203.091 C 29.093 203.922,43.058 203.759,45.892 202.892 C 50.877 201.367,50.536 198.697,45.165 197.205 C 44.671 197.067,44.267 196.788,44.267 196.583 C 44.267 196.379,43.998 196.211,43.669 196.211 C 43.340 196.211,43.071 196.032,43.071 195.813 C 43.071 195.571,41.350 195.414,38.707 195.414 C 36.229 195.414,34.238 195.586,34.098 195.813 M199.601 335.437 C 187.486 336.668,188.263 346.045,200.546 346.841 C 209.414 347.416,215.626 343.286,212.499 338.894 C 210.689 336.353,205.166 334.872,199.601 335.437 " stroke="none" fill="#04ae50" fill-rule="evenodd"></path><path id="path1" d="M185.045 0.737 C 185.045 0.923,182.417 1.200,179.206 1.351 C 175.995 1.503,173.045 1.799,172.652 2.010 C 172.259 2.221,171.028 2.393,169.917 2.393 C 168.805 2.393,167.896 2.572,167.896 2.792 C 167.896 3.011,166.999 3.190,165.902 3.190 C 164.806 3.190,163.908 3.370,163.908 3.589 C 163.908 3.809,163.235 3.991,162.413 3.994 C 161.590 3.998,159.840 4.260,158.524 4.578 C 157.208 4.896,155.638 5.162,155.035 5.170 C 154.432 5.178,153.938 5.364,153.938 5.583 C 153.938 5.803,153.310 5.982,152.542 5.982 C 151.775 5.982,151.147 6.162,151.147 6.381 C 151.147 6.600,150.518 6.780,149.751 6.780 C 148.983 6.780,148.355 6.942,148.355 7.139 C 148.355 7.337,147.278 7.624,145.961 7.777 C 144.645 7.930,143.468 8.216,143.346 8.414 C 143.223 8.612,142.685 8.774,142.150 8.774 C 141.615 8.774,141.176 8.953,141.176 9.172 C 141.176 9.392,140.728 9.571,140.179 9.571 C 139.631 9.571,139.182 9.728,139.182 9.919 C 139.182 10.110,138.293 10.384,137.205 10.528 C 136.117 10.673,135.120 10.965,134.988 11.178 C 134.856 11.391,134.310 11.565,133.775 11.565 C 133.240 11.565,132.802 11.745,132.802 11.964 C 132.802 12.183,132.353 12.363,131.805 12.363 C 131.256 12.363,130.808 12.527,130.808 12.727 C 130.808 12.927,130.091 13.212,129.214 13.360 C 128.338 13.508,127.520 13.793,127.396 13.993 C 127.273 14.193,126.823 14.357,126.397 14.357 C 125.971 14.357,125.623 14.536,125.623 14.756 C 125.623 14.975,125.174 15.155,124.626 15.155 C 124.078 15.155,123.629 15.334,123.629 15.553 C 123.629 15.773,123.270 15.952,122.832 15.952 C 122.393 15.952,122.034 16.129,122.034 16.346 C 122.034 16.563,121.316 16.855,120.439 16.995 C 119.561 17.136,118.843 17.407,118.843 17.598 C 118.843 17.790,118.485 17.946,118.046 17.946 C 117.607 17.946,117.248 18.126,117.248 18.345 C 117.248 18.564,116.979 18.744,116.650 18.744 C 116.321 18.744,116.052 18.923,116.052 19.143 C 116.052 19.362,115.784 19.541,115.456 19.541 C 114.625 19.541,111.665 20.860,111.665 21.231 C 111.665 21.398,111.306 21.535,110.867 21.535 C 110.429 21.535,110.070 21.715,110.070 21.934 C 110.070 22.154,109.892 22.333,109.674 22.333 C 108.993 22.333,106.082 23.702,106.082 24.022 C 106.082 24.190,105.723 24.327,105.284 24.327 C 104.845 24.327,104.487 24.464,104.487 24.631 C 104.487 24.935,104.312 25.042,101.434 26.500 C 100.591 26.928,99.620 27.589,99.278 27.969 C 98.936 28.349,98.129 28.791,97.484 28.950 C 96.839 29.110,96.021 29.570,95.666 29.974 C 95.311 30.378,94.833 30.708,94.603 30.708 C 94.372 30.708,94.124 30.842,94.051 31.007 C 93.978 31.171,93.200 31.663,92.323 32.098 C 91.446 32.534,90.438 33.207,90.083 33.594 C 89.728 33.981,89.312 34.297,89.159 34.297 C 88.788 34.297,86.110 36.299,85.297 37.184 C 84.942 37.570,84.384 37.886,84.057 37.886 C 83.730 37.886,83.125 38.335,82.713 38.883 C 82.301 39.432,81.713 39.880,81.407 39.880 C 81.100 39.880,80.433 40.329,79.925 40.877 C 79.417 41.426,78.801 41.874,78.557 41.874 C 78.312 41.874,77.520 42.502,76.796 43.270 C 76.071 44.038,75.302 44.666,75.086 44.666 C 74.869 44.666,74.262 45.166,73.737 45.776 C 73.211 46.387,72.243 47.227,71.585 47.642 C 70.927 48.058,69.376 49.398,68.138 50.620 C 66.900 51.842,65.382 53.200,64.765 53.639 C 62.985 54.904,54.636 63.480,54.636 64.043 C 54.636 64.323,54.277 64.666,53.838 64.806 C 53.400 64.945,53.041 65.222,53.041 65.422 C 53.041 65.622,52.144 66.674,51.047 67.759 C 49.950 68.844,49.053 70.014,49.053 70.360 C 49.053 70.705,48.882 70.987,48.672 70.987 C 48.169 70.987,45.464 73.847,45.464 74.378 C 45.464 74.507,45.060 75.044,44.566 75.572 C 43.227 77.005,42.672 77.706,42.672 77.967 C 42.672 78.096,42.223 78.650,41.675 79.199 C 41.127 79.747,40.678 80.385,40.678 80.616 C 40.678 80.847,40.184 81.517,39.581 82.105 C 38.483 83.177,37.717 84.224,37.214 85.344 C 37.066 85.673,36.618 86.232,36.219 86.587 C 35.820 86.942,35.494 87.525,35.494 87.883 C 35.494 88.241,35.326 88.534,35.122 88.534 C 34.917 88.534,34.622 88.938,34.466 89.432 C 34.311 89.925,33.850 90.619,33.442 90.974 C 33.035 91.329,32.702 91.822,32.702 92.071 C 32.702 92.319,32.526 92.522,32.311 92.522 C 32.096 92.522,31.798 93.016,31.649 93.619 C 31.500 94.222,31.048 95.006,30.644 95.361 C 30.240 95.716,29.910 96.209,29.910 96.458 C 29.910 96.706,29.776 96.911,29.611 96.913 C 29.447 96.915,28.958 97.723,28.525 98.708 C 28.092 99.693,27.598 100.499,27.428 100.499 C 27.258 100.499,27.119 100.768,27.119 101.097 C 27.119 101.426,26.939 101.695,26.720 101.695 C 26.500 101.695,26.321 102.054,26.321 102.493 C 26.321 102.931,26.145 103.290,25.930 103.290 C 25.715 103.290,25.426 103.739,25.288 104.287 C 25.151 104.835,24.878 105.284,24.683 105.284 C 24.487 105.284,24.327 105.643,24.327 106.082 C 24.327 106.520,24.190 106.879,24.022 106.879 C 23.702 106.879,22.333 109.790,22.333 110.471 C 22.333 110.689,22.154 110.867,21.934 110.867 C 21.715 110.867,21.535 111.226,21.535 111.665 C 21.535 112.104,21.398 112.463,21.231 112.463 C 20.860 112.463,19.541 115.423,19.541 116.254 C 19.541 116.581,19.362 116.849,19.143 116.849 C 18.923 116.849,18.744 117.298,18.744 117.846 C 18.744 118.395,18.564 118.843,18.345 118.843 C 18.126 118.843,17.946 119.113,17.946 119.442 C 17.946 119.771,17.778 120.040,17.572 120.040 C 17.366 120.040,17.076 120.847,16.928 121.834 C 16.780 122.822,16.500 123.629,16.306 123.629 C 16.111 123.629,15.952 123.988,15.952 124.427 C 15.952 124.865,15.773 125.224,15.553 125.224 C 15.334 125.224,15.155 125.673,15.155 126.221 C 15.155 126.770,14.975 127.218,14.756 127.218 C 14.536 127.218,14.357 127.567,14.357 127.992 C 14.357 128.418,14.188 128.871,13.981 128.999 C 13.774 129.126,13.485 130.034,13.338 131.016 C 13.190 131.998,12.911 132.802,12.716 132.802 C 12.522 132.802,12.363 133.073,12.363 133.405 C 12.363 133.737,12.189 134.320,11.977 134.701 C 11.333 135.856,10.369 139.148,10.369 140.193 C 10.369 140.734,10.189 141.176,9.970 141.176 C 9.751 141.176,9.571 141.715,9.571 142.373 C 9.571 143.031,9.392 143.569,9.172 143.569 C 8.953 143.569,8.774 144.007,8.774 144.543 C 8.774 145.078,8.608 145.618,8.406 145.743 C 8.204 145.868,7.914 147.135,7.762 148.559 C 7.609 149.982,7.326 151.147,7.132 151.147 C 6.938 151.147,6.780 151.775,6.780 152.542 C 6.780 153.310,6.600 153.938,6.381 153.938 C 6.162 153.938,5.982 154.645,5.982 155.510 C 5.982 156.374,5.826 157.178,5.636 157.295 C 5.446 157.413,5.183 158.276,5.051 159.213 C 4.919 160.150,4.634 161.725,4.417 162.712 C 4.200 163.699,4.015 165.359,4.005 166.401 C 3.996 167.443,3.809 168.295,3.589 168.295 C 3.368 168.295,3.190 169.359,3.190 170.688 C 3.190 172.017,3.013 173.081,2.792 173.081 C 2.559 173.081,2.393 174.399,2.393 176.238 C 2.393 178.127,2.221 179.452,1.966 179.537 C 1.677 179.634,1.475 184.525,1.341 194.626 C 1.161 208.236,1.261 211.595,2.242 224.826 C 2.359 226.416,2.621 227.717,2.823 227.717 C 3.025 227.717,3.190 228.883,3.190 230.309 C 3.190 231.735,3.344 232.901,3.532 232.901 C 3.720 232.901,3.995 234.360,4.144 236.143 C 4.292 237.927,4.587 239.709,4.799 240.105 C 5.011 240.501,5.184 241.454,5.184 242.223 C 5.184 242.993,5.364 243.733,5.583 243.868 C 5.803 244.004,5.982 244.732,5.982 245.487 C 5.982 246.242,6.162 246.859,6.381 246.859 C 6.600 246.859,6.780 247.488,6.780 248.255 C 6.780 249.023,6.941 249.651,7.138 249.651 C 7.335 249.651,7.622 250.907,7.777 252.443 C 7.931 253.978,8.218 255.234,8.415 255.234 C 8.612 255.234,8.774 255.773,8.774 256.431 C 8.774 257.089,8.953 257.627,9.172 257.627 C 9.392 257.627,9.571 258.155,9.571 258.800 C 9.571 259.445,9.730 260.071,9.924 260.191 C 10.118 260.311,10.398 261.215,10.545 262.199 C 10.693 263.184,10.983 264.094,11.190 264.222 C 11.396 264.349,11.565 264.805,11.565 265.233 C 11.565 265.662,11.773 266.414,12.026 266.905 C 12.888 268.571,13.059 269.018,13.360 270.389 C 13.661 271.760,13.832 272.207,14.693 273.873 C 14.947 274.363,15.155 275.036,15.155 275.368 C 15.155 275.700,15.334 275.972,15.553 275.972 C 15.773 275.972,15.952 276.241,15.952 276.570 C 15.952 276.899,16.111 277.168,16.306 277.168 C 16.500 277.168,16.780 277.976,16.928 278.963 C 17.076 279.950,17.366 280.758,17.572 280.758 C 17.778 280.758,17.946 281.117,17.946 281.555 C 17.946 281.994,18.126 282.353,18.345 282.353 C 18.564 282.353,18.744 282.802,18.744 283.350 C 18.744 283.898,18.915 284.347,19.125 284.347 C 19.334 284.347,19.623 284.975,19.767 285.743 C 19.911 286.510,20.188 287.139,20.383 287.139 C 20.578 287.139,20.738 287.408,20.738 287.737 C 20.738 288.066,20.917 288.335,21.137 288.335 C 21.356 288.335,21.535 288.694,21.535 289.133 C 21.535 289.571,21.695 289.930,21.890 289.930 C 22.085 289.930,22.362 290.558,22.506 291.326 C 22.650 292.094,22.906 292.722,23.074 292.722 C 23.243 292.722,23.627 293.350,23.928 294.118 C 24.229 294.885,24.602 295.513,24.757 295.513 C 24.912 295.513,25.151 295.962,25.288 296.510 C 25.426 297.059,25.715 297.507,25.930 297.507 C 26.145 297.507,26.321 297.866,26.321 298.305 C 26.321 298.744,26.457 299.103,26.622 299.103 C 26.788 299.103,27.181 299.686,27.495 300.399 C 27.810 301.112,28.302 301.932,28.590 302.222 C 28.877 302.512,29.113 303.005,29.113 303.319 C 29.113 303.632,29.292 303.888,29.511 303.888 C 29.731 303.888,29.910 304.181,29.910 304.539 C 29.910 304.898,30.224 305.484,30.608 305.842 C 30.992 306.200,31.588 307.029,31.933 307.683 C 32.942 309.597,33.682 310.853,33.928 311.067 C 34.055 311.176,34.497 311.849,34.912 312.562 C 35.326 313.275,35.806 313.858,35.978 313.858 C 36.150 313.858,36.291 314.051,36.291 314.286 C 36.291 314.521,36.515 314.963,36.790 315.269 C 37.972 316.587,38.285 317.039,38.285 317.427 C 38.285 317.654,38.644 318.064,39.083 318.338 C 39.521 318.612,39.880 319.049,39.880 319.310 C 39.880 319.570,40.508 320.450,41.276 321.264 C 42.044 322.078,42.672 322.922,42.672 323.141 C 42.672 323.359,43.121 323.953,43.669 324.462 C 44.217 324.970,44.666 325.548,44.666 325.746 C 44.666 325.944,45.474 326.937,46.461 327.952 C 47.448 328.968,48.255 329.899,48.255 330.022 C 48.255 330.145,48.659 330.661,49.153 331.169 C 49.646 331.678,50.314 332.478,50.637 332.947 C 50.961 333.417,51.535 333.900,51.913 334.020 C 52.292 334.140,52.724 334.626,52.875 335.100 C 53.237 336.241,66.006 348.953,66.789 348.953 C 67.124 348.953,67.398 349.127,67.398 349.339 C 67.398 349.800,69.632 352.025,71.216 353.141 C 71.839 353.579,73.029 354.611,73.861 355.434 C 74.693 356.256,75.557 356.929,75.780 356.929 C 76.003 356.929,76.796 357.557,77.541 358.325 C 78.287 359.093,79.048 359.721,79.233 359.721 C 79.418 359.721,80.053 360.169,80.645 360.718 C 81.236 361.266,81.897 361.715,82.114 361.715 C 82.330 361.715,82.742 362.047,83.028 362.453 C 83.315 362.859,84.133 363.492,84.845 363.859 C 85.558 364.226,86.142 364.702,86.142 364.916 C 86.142 365.129,86.435 365.304,86.793 365.304 C 87.151 365.304,87.734 365.637,88.089 366.045 C 88.444 366.452,89.138 366.913,89.631 367.069 C 90.125 367.224,90.528 367.519,90.528 367.724 C 90.528 367.928,90.798 368.096,91.127 368.096 C 91.456 368.096,91.725 368.262,91.725 368.466 C 91.725 368.669,92.443 369.152,93.320 369.539 C 94.197 369.927,94.915 370.388,94.915 370.565 C 94.915 370.742,95.184 370.887,95.513 370.887 C 95.842 370.887,96.112 371.067,96.112 371.286 C 96.112 371.505,96.471 371.685,96.909 371.685 C 97.348 371.685,97.707 371.867,97.707 372.090 C 97.707 372.313,98.380 372.807,99.202 373.187 C 100.025 373.567,100.788 373.993,100.897 374.132 C 101.302 374.648,104.860 376.471,105.461 376.471 C 105.802 376.471,106.082 376.650,106.082 376.869 C 106.082 377.089,106.351 377.268,106.680 377.268 C 107.009 377.268,107.278 377.448,107.278 377.667 C 107.278 377.886,107.622 378.066,108.043 378.066 C 108.463 378.066,108.867 378.212,108.940 378.390 C 109.116 378.819,114.753 381.546,116.152 381.879 C 116.755 382.023,117.248 382.300,117.248 382.496 C 117.248 382.691,117.607 382.851,118.046 382.851 C 118.485 382.851,118.843 383.031,118.843 383.250 C 118.843 383.470,119.113 383.649,119.442 383.649 C 119.771 383.649,120.040 383.790,120.040 383.963 C 120.040 384.136,121.206 384.630,122.632 385.060 C 124.058 385.490,125.224 385.977,125.224 386.142 C 125.224 386.306,125.673 386.441,126.221 386.441 C 126.770 386.441,127.218 386.576,127.218 386.742 C 127.218 387.194,129.191 387.969,131.107 388.270 C 132.039 388.417,132.802 388.693,132.802 388.884 C 132.802 389.076,133.161 389.232,133.599 389.232 C 134.038 389.232,134.397 389.412,134.397 389.631 C 134.397 389.850,134.845 390.030,135.394 390.030 C 135.942 390.030,136.391 390.193,136.391 390.391 C 136.391 390.590,137.288 390.876,138.384 391.027 C 139.481 391.178,140.478 391.464,140.601 391.662 C 140.724 391.861,141.353 392.024,141.998 392.024 C 142.643 392.024,143.170 392.203,143.170 392.423 C 143.170 392.642,143.709 392.822,144.367 392.822 C 145.025 392.822,145.563 393.001,145.563 393.220 C 145.563 393.440,146.191 393.619,146.959 393.619 C 147.727 393.619,148.355 393.790,148.355 393.998 C 148.355 394.207,149.432 394.499,150.748 394.648 C 152.064 394.797,153.141 395.075,153.141 395.266 C 153.141 395.457,153.948 395.613,154.935 395.613 C 155.922 395.613,156.730 395.793,156.730 396.012 C 156.730 396.231,157.347 396.411,158.102 396.411 C 158.857 396.411,159.575 396.574,159.699 396.774 C 159.822 396.974,161.493 397.266,163.411 397.424 C 165.330 397.582,167.027 397.912,167.184 398.157 C 167.586 398.789,235.200 398.795,235.608 398.164 C 235.764 397.922,237.314 397.598,239.052 397.443 C 240.790 397.289,242.528 396.993,242.914 396.787 C 243.300 396.580,244.167 396.411,244.839 396.411 C 245.512 396.411,246.062 396.231,246.062 396.012 C 246.062 395.793,246.769 395.613,247.633 395.613 C 248.498 395.613,249.301 395.457,249.419 395.267 C 249.537 395.076,250.714 394.798,252.035 394.649 C 253.356 394.499,254.437 394.207,254.437 393.998 C 254.437 393.790,255.065 393.619,255.833 393.619 C 256.600 393.619,257.228 393.440,257.228 393.220 C 257.228 393.001,257.767 392.822,258.425 392.822 C 259.083 392.822,259.621 392.642,259.621 392.423 C 259.621 392.203,260.070 392.024,260.618 392.024 C 261.167 392.024,261.615 391.869,261.615 391.681 C 261.615 391.492,262.544 391.227,263.678 391.093 C 264.813 390.959,265.926 390.664,266.151 390.439 C 266.376 390.214,266.883 390.030,267.278 390.030 C 267.673 390.030,267.996 389.850,267.996 389.631 C 267.996 389.412,268.445 389.232,268.993 389.232 C 269.541 389.232,269.990 389.053,269.990 388.833 C 269.990 388.614,270.328 388.435,270.742 388.435 C 271.872 388.435,275.573 387.166,275.573 386.779 C 275.573 386.593,276.022 386.441,276.570 386.441 C 277.119 386.441,277.567 386.261,277.567 386.042 C 277.567 385.823,277.854 385.643,278.205 385.643 C 278.556 385.643,279.498 385.355,280.299 385.003 C 283.088 383.778,285.345 382.661,285.543 382.408 C 285.653 382.269,286.326 382.028,287.039 381.873 C 287.752 381.718,288.335 381.426,288.335 381.225 C 288.335 381.023,288.694 380.857,289.133 380.857 C 289.571 380.857,289.930 380.678,289.930 380.459 C 289.930 380.239,290.199 380.060,290.528 380.060 C 290.857 380.060,291.127 379.900,291.127 379.705 C 291.127 379.510,291.755 379.233,292.522 379.089 C 293.290 378.945,293.918 378.656,293.918 378.447 C 293.918 378.237,294.277 378.066,294.716 378.066 C 295.155 378.066,295.513 377.886,295.513 377.667 C 295.513 377.448,295.783 377.268,296.112 377.268 C 296.441 377.268,296.710 377.111,296.710 376.919 C 296.710 376.727,297.203 376.470,297.807 376.348 C 298.410 376.226,299.300 375.755,299.784 375.302 C 300.268 374.848,300.941 374.477,301.279 374.477 C 301.618 374.477,301.894 374.317,301.894 374.121 C 301.894 373.925,302.302 373.663,302.800 373.538 C 303.297 373.413,304.098 372.945,304.578 372.498 C 305.057 372.051,305.687 371.685,305.977 371.685 C 306.267 371.685,306.758 371.333,307.068 370.902 C 307.379 370.471,308.112 370.014,308.698 369.885 C 309.283 369.756,310.138 369.301,310.597 368.873 C 311.057 368.446,311.619 368.096,311.848 368.096 C 312.076 368.096,312.263 367.957,312.263 367.788 C 312.263 367.618,312.891 367.141,313.659 366.728 C 314.427 366.314,315.055 365.825,315.055 365.640 C 315.055 365.455,315.298 365.304,315.595 365.304 C 315.892 365.304,316.619 364.855,317.211 364.307 C 317.802 363.759,318.507 363.310,318.776 363.310 C 319.045 363.310,319.524 362.951,319.840 362.512 C 320.157 362.074,320.645 361.715,320.926 361.715 C 321.206 361.715,321.436 361.547,321.436 361.343 C 321.436 361.138,321.785 360.860,322.213 360.724 C 322.640 360.589,323.101 360.128,323.237 359.700 C 323.372 359.273,323.765 358.923,324.109 358.923 C 324.453 358.923,325.150 358.475,325.658 357.926 C 326.166 357.378,326.754 356.929,326.963 356.929 C 327.173 356.929,328.175 356.122,329.191 355.135 C 330.207 354.148,331.119 353.340,331.219 353.340 C 331.467 353.340,333.325 351.748,334.411 350.604 C 336.497 348.406,338.089 346.959,338.420 346.959 C 338.978 346.959,353.380 331.885,353.679 330.987 C 353.764 330.732,354.620 329.703,355.581 328.700 C 356.542 327.697,357.328 326.732,357.328 326.556 C 357.328 326.380,357.956 325.589,358.724 324.799 C 359.492 324.008,360.120 323.151,360.120 322.893 C 360.120 322.636,360.473 322.205,360.905 321.935 C 361.336 321.665,361.974 320.896,362.320 320.225 C 362.910 319.085,363.196 318.694,365.005 316.555 C 365.389 316.102,365.703 315.528,365.703 315.281 C 365.703 315.034,366.062 314.573,366.500 314.257 C 366.939 313.941,367.298 313.475,367.298 313.221 C 367.298 312.967,367.567 312.536,367.896 312.263 C 368.225 311.990,368.495 311.473,368.495 311.114 C 368.495 310.755,368.853 310.237,369.292 309.963 C 369.731 309.689,370.090 309.197,370.090 308.870 C 370.090 308.543,370.266 308.275,370.481 308.275 C 370.696 308.275,370.985 307.827,371.122 307.278 C 371.260 306.730,371.533 306.281,371.728 306.281 C 371.924 306.281,372.084 305.988,372.084 305.630 C 372.084 305.272,372.413 304.689,372.815 304.334 C 373.217 303.979,373.880 302.926,374.287 301.994 C 374.695 301.062,375.174 300.299,375.351 300.299 C 375.528 300.299,375.673 300.030,375.673 299.701 C 375.673 299.372,375.852 299.103,376.072 299.103 C 376.291 299.103,376.471 298.744,376.471 298.305 C 376.471 297.866,376.636 297.507,376.838 297.507 C 377.040 297.507,377.333 296.924,377.489 296.212 C 377.646 295.499,378.073 294.647,378.439 294.317 C 379.141 293.685,380.459 291.109,380.459 290.368 C 380.459 290.127,380.638 289.930,380.857 289.930 C 381.077 289.930,381.256 289.571,381.256 289.133 C 381.256 288.694,381.392 288.335,381.558 288.335 C 381.723 288.335,382.100 287.752,382.395 287.039 C 382.690 286.326,383.183 285.177,383.490 284.486 C 383.797 283.795,384.048 283.032,384.048 282.791 C 384.048 282.550,384.227 282.353,384.447 282.353 C 384.666 282.353,384.845 281.994,384.845 281.555 C 384.845 281.117,385.025 280.758,385.244 280.758 C 385.464 280.758,385.643 280.409,385.643 279.984 C 385.643 279.558,385.823 279.099,386.042 278.963 C 386.261 278.828,386.442 278.413,386.443 278.042 C 386.444 277.671,386.714 276.854,387.041 276.226 C 387.369 275.597,387.637 274.745,387.637 274.331 C 387.637 273.918,387.817 273.579,388.036 273.579 C 388.255 273.579,388.435 273.231,388.435 272.805 C 388.435 272.379,388.604 271.927,388.810 271.799 C 389.017 271.671,389.307 270.763,389.454 269.781 C 389.601 268.799,389.881 267.996,390.075 267.996 C 390.270 267.996,390.429 267.547,390.429 266.999 C 390.429 266.451,390.608 266.002,390.828 266.002 C 391.047 266.002,391.226 265.564,391.226 265.029 C 391.226 264.493,391.389 263.955,391.588 263.832 C 391.787 263.709,392.073 262.711,392.223 261.615 C 392.374 260.518,392.660 259.621,392.859 259.621 C 393.058 259.621,393.220 259.183,393.220 258.648 C 393.220 258.112,393.400 257.563,393.619 257.428 C 393.838 257.292,394.018 256.664,394.018 256.032 C 394.018 255.400,394.197 254.772,394.417 254.636 C 394.636 254.501,394.816 253.898,394.816 253.297 C 394.816 252.695,394.999 252.020,395.223 251.796 C 395.447 251.572,395.742 250.190,395.879 248.725 C 396.015 247.260,396.281 246.062,396.468 246.062 C 396.656 246.062,396.810 245.434,396.810 244.666 C 396.810 243.898,396.989 243.270,397.208 243.270 C 397.428 243.270,397.607 242.588,397.607 241.755 C 397.607 240.921,397.775 240.069,397.980 239.860 C 398.185 239.652,398.480 237.866,398.636 235.892 C 398.791 233.918,399.117 232.175,399.360 232.019 C 399.994 231.609,399.984 169.842,399.350 169.054 C 399.101 168.746,398.771 166.925,398.616 165.006 C 398.461 163.088,398.170 161.417,397.970 161.294 C 397.771 161.171,397.607 160.273,397.607 159.298 C 397.607 158.324,397.428 157.527,397.208 157.527 C 396.989 157.527,396.810 156.899,396.810 156.132 C 396.810 155.364,396.648 154.736,396.451 154.736 C 396.254 154.736,395.967 153.480,395.813 151.944 C 395.658 150.409,395.371 149.153,395.174 149.153 C 394.977 149.153,394.816 148.524,394.816 147.757 C 394.816 146.989,394.636 146.361,394.417 146.361 C 394.197 146.361,394.018 145.823,394.018 145.165 C 394.018 144.506,393.838 143.968,393.619 143.968 C 393.400 143.968,393.220 143.340,393.220 142.572 C 393.220 141.805,393.058 141.176,392.859 141.176 C 392.660 141.176,392.374 140.279,392.223 139.182 C 392.072 138.086,391.786 137.188,391.588 137.188 C 391.389 137.188,391.226 136.650,391.226 135.992 C 391.226 135.334,391.047 134.796,390.828 134.796 C 390.608 134.796,390.429 134.347,390.429 133.799 C 390.429 133.250,390.270 132.802,390.075 132.802 C 389.881 132.802,389.601 131.994,389.453 131.007 C 389.305 130.020,389.015 129.212,388.809 129.212 C 388.603 129.212,388.435 128.764,388.435 128.215 C 388.435 127.667,388.255 127.218,388.036 127.218 C 387.817 127.218,387.637 126.859,387.637 126.421 C 387.637 125.982,387.481 125.623,387.289 125.623 C 387.098 125.623,386.827 124.905,386.686 124.028 C 386.546 123.151,386.254 122.433,386.037 122.433 C 385.820 122.433,385.643 122.071,385.643 121.630 C 385.643 120.865,384.930 119.270,384.397 118.843 C 384.260 118.734,384.022 118.061,383.867 117.348 C 383.712 116.635,383.420 116.052,383.219 116.052 C 383.017 116.052,382.851 115.693,382.851 115.254 C 382.851 114.816,382.672 114.457,382.453 114.457 C 382.233 114.457,382.054 114.216,382.054 113.921 C 382.054 113.255,379.197 107.526,378.774 107.345 C 378.604 107.272,378.465 106.957,378.465 106.647 C 378.465 106.336,378.305 106.082,378.110 106.082 C 377.915 106.082,377.638 105.454,377.494 104.686 C 377.350 103.918,377.105 103.290,376.949 103.290 C 376.793 103.290,376.408 102.707,376.094 101.994 C 375.780 101.281,375.287 100.461,375.000 100.171 C 374.712 99.881,374.477 99.388,374.477 99.074 C 374.477 98.761,374.297 98.504,374.078 98.504 C 373.858 98.504,373.679 98.269,373.679 97.981 C 373.679 97.694,373.320 97.073,372.881 96.602 C 372.443 96.131,372.084 95.559,372.084 95.331 C 372.084 95.102,371.919 94.915,371.717 94.915 C 371.515 94.915,371.231 94.377,371.087 93.719 C 370.942 93.061,370.659 92.522,370.457 92.522 C 370.255 92.522,370.090 92.319,370.090 92.071 C 370.090 91.822,369.756 91.329,369.349 90.974 C 368.942 90.619,368.481 89.925,368.325 89.432 C 368.169 88.938,367.875 88.534,367.670 88.534 C 367.465 88.534,367.298 88.299,367.298 88.011 C 367.298 87.724,366.939 87.103,366.500 86.632 C 366.062 86.161,365.703 85.632,365.703 85.456 C 365.703 85.280,365.254 84.653,364.706 84.061 C 364.158 83.470,363.709 82.881,363.709 82.752 C 363.709 82.623,363.260 82.034,362.712 81.442 C 362.164 80.851,361.715 80.213,361.715 80.024 C 361.715 79.836,361.176 79.179,360.518 78.564 C 359.860 77.950,359.322 77.255,359.322 77.022 C 359.322 76.788,358.694 75.969,357.926 75.201 C 357.159 74.433,356.530 73.628,356.530 73.411 C 356.530 72.921,354.628 70.987,354.146 70.987 C 353.952 70.987,353.674 70.614,353.530 70.159 C 353.385 69.704,352.700 68.740,352.007 68.017 C 351.315 67.294,350.350 66.276,349.864 65.754 C 349.378 65.232,348.570 64.421,348.069 63.950 C 347.568 63.480,346.770 62.583,346.295 61.956 C 344.918 60.139,340.090 55.434,339.603 55.434 C 339.359 55.434,338.895 55.051,338.573 54.583 C 338.250 54.114,337.759 53.531,337.481 53.286 C 337.204 53.042,336.032 51.944,334.877 50.847 C 333.723 49.751,332.267 48.495,331.642 48.056 C 331.017 47.617,329.961 46.675,329.296 45.962 C 328.631 45.249,327.928 44.666,327.733 44.666 C 327.538 44.666,326.731 44.038,325.941 43.270 C 325.151 42.502,324.343 41.874,324.147 41.874 C 323.951 41.874,323.375 41.426,322.866 40.877 C 322.358 40.329,321.747 39.880,321.508 39.880 C 321.269 39.880,320.624 39.432,320.076 38.883 C 319.528 38.335,318.841 37.886,318.551 37.886 C 318.260 37.886,317.764 37.527,317.448 37.089 C 317.131 36.650,316.643 36.291,316.363 36.291 C 316.082 36.291,315.852 36.140,315.852 35.955 C 315.852 35.770,315.224 35.281,314.457 34.867 C 313.689 34.454,313.061 33.977,313.061 33.808 C 313.061 33.638,312.721 33.500,312.306 33.500 C 311.891 33.500,311.444 33.222,311.314 32.882 C 311.184 32.543,310.537 32.077,309.876 31.846 C 309.215 31.616,308.674 31.266,308.674 31.068 C 308.674 30.870,308.487 30.708,308.258 30.708 C 308.030 30.708,307.474 30.364,307.023 29.944 C 306.571 29.523,305.737 29.063,305.169 28.920 C 304.600 28.777,303.855 28.349,303.513 27.968 C 303.171 27.587,302.084 26.886,301.097 26.411 C 299.166 25.482,297.033 24.264,296.710 23.907 C 296.389 23.553,293.639 22.333,293.160 22.333 C 292.919 22.333,292.722 22.154,292.722 21.934 C 292.722 21.715,292.363 21.535,291.924 21.535 C 291.486 21.535,291.127 21.398,291.127 21.231 C 291.127 21.063,290.364 20.603,289.432 20.207 C 288.500 19.812,287.243 19.277,286.640 19.019 C 286.037 18.760,285.543 18.413,285.543 18.248 C 285.543 18.082,285.195 17.946,284.769 17.946 C 284.344 17.946,283.897 17.787,283.777 17.593 C 283.657 17.398,282.928 17.121,282.158 16.976 C 281.388 16.832,280.758 16.542,280.758 16.333 C 280.758 16.123,280.399 15.952,279.960 15.952 C 279.521 15.952,279.163 15.773,279.163 15.553 C 279.163 15.334,278.714 15.155,278.166 15.155 C 277.617 15.155,277.168 15.013,277.168 14.840 C 277.168 14.668,276.002 14.174,274.576 13.744 C 273.151 13.313,271.984 12.827,271.984 12.662 C 271.984 12.498,271.535 12.363,270.987 12.363 C 270.439 12.363,269.990 12.183,269.990 11.964 C 269.990 11.745,269.552 11.565,269.017 11.565 C 268.481 11.565,267.935 11.391,267.804 11.178 C 267.672 10.965,266.674 10.673,265.587 10.528 C 264.499 10.384,263.609 10.110,263.609 9.919 C 263.609 9.728,263.161 9.571,262.612 9.571 C 262.064 9.571,261.615 9.412,261.615 9.218 C 261.615 8.855,261.238 8.750,256.929 7.911 C 255.558 7.644,254.437 7.280,254.437 7.103 C 254.437 6.925,253.809 6.780,253.041 6.780 C 252.273 6.780,251.645 6.600,251.645 6.381 C 251.645 6.162,251.017 5.982,250.249 5.982 C 249.482 5.982,248.853 5.803,248.853 5.583 C 248.853 5.364,248.360 5.178,247.757 5.170 C 247.154 5.162,245.583 4.896,244.267 4.578 C 242.951 4.260,241.201 3.998,240.379 3.994 C 239.556 3.991,238.883 3.809,238.883 3.589 C 238.883 3.370,237.986 3.190,236.889 3.190 C 235.793 3.190,234.895 3.011,234.895 2.792 C 234.895 2.572,233.986 2.393,232.875 2.393 C 231.764 2.393,230.533 2.221,230.140 2.010 C 229.746 1.799,226.797 1.503,223.586 1.351 C 220.374 1.200,217.747 0.923,217.747 0.737 C 217.747 0.551,210.389 0.399,201.396 0.399 C 192.403 0.399,185.045 0.551,185.045 0.737 M223.638 11.095 C 223.739 11.396,224.789 11.565,226.554 11.565 C 228.127 11.565,229.312 11.737,229.312 11.964 C 229.312 12.183,230.199 12.363,231.283 12.363 C 232.366 12.363,233.354 12.526,233.477 12.726 C 233.601 12.926,235.227 13.216,237.090 13.371 C 238.954 13.527,240.479 13.812,240.479 14.005 C 240.479 14.199,241.286 14.357,242.273 14.357 C 243.260 14.357,244.068 14.536,244.068 14.756 C 244.068 14.975,244.696 15.155,245.464 15.155 C 246.231 15.155,246.859 15.334,246.859 15.553 C 246.859 15.773,247.477 15.952,248.232 15.952 C 248.986 15.952,249.702 16.111,249.822 16.304 C 249.941 16.498,251.026 16.780,252.232 16.930 C 253.438 17.081,254.527 17.371,254.653 17.575 C 254.779 17.779,255.310 17.946,255.833 17.946 C 256.355 17.946,256.893 18.126,257.029 18.345 C 257.164 18.564,257.803 18.744,258.448 18.744 C 259.093 18.744,259.621 18.906,259.621 19.105 C 259.621 19.304,260.518 19.590,261.615 19.741 C 262.712 19.892,263.609 20.178,263.609 20.376 C 263.609 20.575,263.881 20.738,264.213 20.738 C 264.545 20.738,265.173 20.917,265.609 21.137 C 266.044 21.356,266.738 21.703,267.149 21.907 C 267.561 22.111,268.548 22.400,269.343 22.550 C 270.137 22.699,270.788 22.980,270.788 23.175 C 270.788 23.370,271.236 23.529,271.785 23.529 C 272.333 23.529,272.782 23.709,272.782 23.928 C 272.782 24.148,273.130 24.327,273.556 24.327 C 273.981 24.327,274.431 24.491,274.555 24.691 C 274.679 24.891,275.497 25.176,276.373 25.324 C 277.249 25.472,277.966 25.757,277.966 25.957 C 277.966 26.157,278.235 26.321,278.564 26.321 C 278.893 26.321,279.163 26.500,279.163 26.720 C 279.163 26.939,279.521 27.119,279.960 27.119 C 280.399 27.119,280.758 27.298,280.758 27.517 C 280.758 27.737,281.206 27.916,281.755 27.916 C 282.303 27.916,282.752 28.076,282.752 28.271 C 282.752 28.466,283.380 28.743,284.148 28.887 C 284.915 29.031,285.543 29.320,285.543 29.530 C 285.543 29.739,285.902 29.910,286.341 29.910 C 286.780 29.910,287.139 30.090,287.139 30.309 C 287.139 30.528,287.408 30.708,287.737 30.708 C 288.066 30.708,288.335 30.887,288.335 31.107 C 288.335 31.326,288.681 31.505,289.104 31.505 C 289.527 31.505,290.142 31.775,290.471 32.104 C 290.800 32.433,291.262 32.702,291.497 32.702 C 291.732 32.702,291.924 32.881,291.924 33.101 C 291.924 33.320,292.283 33.500,292.722 33.500 C 293.161 33.500,293.519 33.665,293.519 33.867 C 293.519 34.069,294.103 34.362,294.816 34.518 C 295.528 34.675,296.346 35.138,296.633 35.547 C 296.919 35.956,297.413 36.291,297.729 36.291 C 298.046 36.291,298.305 36.471,298.305 36.690 C 298.305 36.909,298.552 37.089,298.854 37.089 C 299.157 37.089,299.627 37.358,299.900 37.687 C 300.173 38.016,300.734 38.285,301.146 38.285 C 301.557 38.285,301.894 38.465,301.894 38.684 C 301.894 38.903,302.164 39.083,302.493 39.083 C 302.822 39.083,303.091 39.242,303.091 39.436 C 303.091 39.630,303.719 40.088,304.487 40.452 C 305.254 40.816,305.882 41.285,305.882 41.494 C 305.882 41.703,306.175 41.874,306.533 41.874 C 306.892 41.874,307.475 42.208,307.830 42.615 C 308.184 43.022,308.878 43.483,309.372 43.639 C 309.865 43.795,310.269 44.090,310.269 44.294 C 310.269 44.499,310.457 44.666,310.686 44.666 C 310.915 44.666,311.552 45.115,312.100 45.663 C 312.648 46.211,313.286 46.660,313.517 46.660 C 313.748 46.660,314.440 47.198,315.055 47.856 C 315.670 48.514,316.363 49.053,316.597 49.053 C 316.830 49.053,317.532 49.546,318.156 50.150 C 318.780 50.753,319.796 51.605,320.413 52.044 C 321.031 52.483,321.954 53.245,322.465 53.739 C 322.976 54.232,323.499 54.636,323.628 54.636 C 323.995 54.636,325.461 55.911,326.892 57.474 C 327.939 58.619,328.895 59.422,329.211 59.422 C 329.542 59.422,341.737 71.785,343.170 73.573 C 344.898 75.730,346.142 76.969,346.578 76.969 C 346.788 76.969,346.959 77.269,346.959 77.636 C 346.959 78.002,347.767 79.076,348.754 80.022 C 349.741 80.968,350.548 81.916,350.548 82.129 C 350.548 82.342,350.997 82.965,351.545 83.513 C 352.094 84.061,352.542 84.616,352.542 84.744 C 352.542 84.969,352.964 85.528,354.038 86.725 C 354.312 87.031,354.536 87.392,354.536 87.527 C 354.536 87.662,354.985 88.222,355.533 88.770 C 356.082 89.318,356.530 90.000,356.530 90.285 C 356.530 90.570,356.889 91.128,357.328 91.525 C 357.767 91.922,358.126 92.489,358.126 92.784 C 358.126 93.079,358.277 93.320,358.462 93.320 C 358.646 93.320,359.136 93.948,359.549 94.716 C 359.963 95.484,360.440 96.112,360.609 96.112 C 360.779 96.112,360.917 96.371,360.917 96.687 C 360.917 97.004,361.247 97.497,361.650 97.784 C 362.054 98.071,362.506 98.799,362.655 99.402 C 362.804 100.005,363.103 100.499,363.318 100.499 C 363.533 100.499,363.709 100.768,363.709 101.097 C 363.709 101.426,363.888 101.695,364.108 101.695 C 364.327 101.695,364.506 102.054,364.506 102.493 C 364.506 102.931,364.674 103.290,364.878 103.290 C 365.083 103.290,365.376 103.694,365.530 104.187 C 365.684 104.681,365.921 105.174,366.056 105.284 C 366.420 105.580,367.605 107.636,368.584 109.671 C 369.059 110.658,369.555 111.555,369.688 111.665 C 370.073 111.984,372.084 116.285,372.084 116.790 C 372.084 117.042,372.263 117.248,372.483 117.248 C 372.702 117.248,372.881 117.607,372.881 118.046 C 372.881 118.485,373.061 118.843,373.280 118.843 C 373.500 118.843,373.679 119.113,373.679 119.442 C 373.679 119.771,373.838 120.040,374.033 120.040 C 374.228 120.040,374.506 120.668,374.650 121.436 C 374.794 122.203,375.083 122.832,375.292 122.832 C 375.502 122.832,375.673 123.280,375.673 123.829 C 375.673 124.377,375.852 124.826,376.072 124.826 C 376.291 124.826,376.471 125.184,376.471 125.623 C 376.471 126.062,376.630 126.421,376.825 126.421 C 377.020 126.421,377.300 127.062,377.447 127.847 C 377.594 128.631,378.063 129.893,378.488 130.650 C 378.914 131.408,379.262 132.382,379.262 132.814 C 379.262 133.246,379.442 133.599,379.661 133.599 C 379.880 133.599,380.061 134.003,380.062 134.497 C 380.064 134.990,380.333 135.908,380.660 136.536 C 380.988 137.164,381.256 138.017,381.256 138.430 C 381.256 138.844,381.436 139.182,381.655 139.182 C 381.874 139.182,382.054 139.631,382.054 140.179 C 382.054 140.728,382.233 141.176,382.453 141.176 C 382.672 141.176,382.851 141.715,382.851 142.373 C 382.851 143.031,383.013 143.569,383.211 143.569 C 383.409 143.569,383.696 144.646,383.848 145.962 C 384.001 147.278,384.288 148.355,384.486 148.355 C 384.684 148.355,384.845 148.983,384.845 149.751 C 384.845 150.518,385.025 151.147,385.244 151.147 C 385.464 151.147,385.643 151.595,385.643 152.144 C 385.643 152.692,385.799 153.141,385.990 153.141 C 386.181 153.141,386.463 154.576,386.616 156.331 C 386.769 158.086,387.061 159.521,387.266 159.521 C 387.470 159.521,387.637 160.229,387.637 161.093 C 387.637 161.958,387.817 162.776,388.036 162.911 C 388.255 163.047,388.435 163.955,388.435 164.929 C 388.435 165.903,388.597 166.700,388.795 166.700 C 388.993 166.700,389.284 168.584,389.441 170.887 C 389.598 173.190,389.884 175.075,390.078 175.075 C 390.271 175.075,390.429 176.410,390.429 178.042 C 390.429 179.674,390.608 181.121,390.828 181.256 C 391.054 181.396,391.226 183.379,391.226 185.842 C 391.226 188.305,391.399 190.289,391.625 190.429 C 391.874 190.583,392.024 194.487,392.024 200.821 C 392.024 207.319,391.881 210.967,391.625 210.967 C 391.384 210.967,391.226 212.687,391.226 215.330 C 391.226 217.809,391.054 219.800,390.828 219.940 C 390.608 220.076,390.429 221.345,390.429 222.761 C 390.429 224.177,390.257 225.646,390.048 226.027 C 389.838 226.408,389.552 228.470,389.412 230.608 C 389.272 232.747,388.995 234.497,388.796 234.497 C 388.597 234.497,388.435 235.394,388.435 236.491 C 388.435 237.587,388.255 238.485,388.036 238.485 C 387.817 238.485,387.637 239.102,387.637 239.857 C 387.637 240.612,387.479 241.327,387.286 241.446 C 387.092 241.566,386.808 243.012,386.653 244.660 C 386.499 246.308,386.208 247.657,386.008 247.657 C 385.807 247.657,385.643 248.195,385.643 248.853 C 385.643 249.511,385.464 250.050,385.244 250.050 C 385.025 250.050,384.845 250.578,384.845 251.223 C 384.845 251.868,384.674 252.501,384.465 252.631 C 384.256 252.760,383.964 253.937,383.815 255.246 C 383.667 256.556,383.390 257.627,383.199 257.627 C 383.008 257.627,382.851 258.076,382.851 258.624 C 382.851 259.172,382.672 259.621,382.453 259.621 C 382.233 259.621,382.054 260.059,382.054 260.595 C 382.054 261.130,381.874 261.679,381.655 261.815 C 381.436 261.950,381.256 262.499,381.256 263.035 C 381.256 263.570,381.097 264.008,380.903 264.008 C 380.708 264.008,380.428 264.816,380.280 265.803 C 380.132 266.790,379.842 267.597,379.637 267.597 C 379.431 267.597,379.262 268.046,379.262 268.594 C 379.262 269.143,379.102 269.591,378.906 269.591 C 378.711 269.591,378.228 270.668,377.834 271.984 C 377.440 273.300,376.972 274.377,376.794 274.377 C 376.616 274.377,376.471 274.725,376.471 275.151 C 376.471 275.577,376.291 276.036,376.072 276.171 C 375.852 276.307,375.673 276.766,375.673 277.192 C 375.673 277.618,375.513 277.966,375.319 277.966 C 375.124 277.966,374.846 278.594,374.702 279.362 C 374.558 280.130,374.269 280.758,374.060 280.758 C 373.850 280.758,373.679 281.102,373.679 281.522 C 373.679 281.943,373.544 282.346,373.380 282.419 C 372.981 282.597,370.887 286.817,370.887 287.443 C 370.887 287.714,370.708 287.936,370.489 287.936 C 370.269 287.936,370.090 288.205,370.090 288.534 C 370.090 288.863,369.910 289.133,369.691 289.133 C 369.472 289.133,369.292 289.492,369.292 289.930 C 369.292 290.369,369.127 290.728,368.925 290.728 C 368.723 290.728,368.430 291.311,368.273 292.024 C 368.117 292.736,367.690 293.589,367.324 293.918 C 366.663 294.513,365.304 297.110,365.304 297.779 C 365.304 297.971,364.945 298.388,364.506 298.704 C 364.068 299.020,363.709 299.598,363.709 299.988 C 363.709 300.379,363.533 300.698,363.318 300.698 C 363.103 300.698,362.814 301.147,362.676 301.695 C 362.539 302.243,362.266 302.692,362.070 302.692 C 361.875 302.692,361.715 302.921,361.715 303.202 C 361.715 303.483,361.356 303.971,360.917 304.287 C 360.479 304.603,360.120 305.181,360.120 305.572 C 360.120 305.962,359.952 306.281,359.748 306.281 C 359.543 306.281,359.255 306.661,359.108 307.126 C 358.960 307.591,358.325 308.509,357.697 309.167 C 357.069 309.824,356.447 310.700,356.316 311.113 C 356.185 311.526,355.910 311.864,355.706 311.864 C 355.501 311.864,355.334 312.052,355.334 312.281 C 355.334 312.511,354.885 313.147,354.337 313.695 C 353.789 314.244,353.340 314.881,353.340 315.112 C 353.340 315.343,352.802 316.035,352.144 316.650 C 351.486 317.265,350.947 317.946,350.947 318.164 C 350.947 318.382,350.140 319.415,349.153 320.460 C 348.166 321.505,347.358 322.501,347.358 322.673 C 347.358 322.846,346.461 323.870,345.364 324.950 C 344.267 326.029,343.370 327.032,343.370 327.179 C 343.370 327.515,342.270 328.739,339.293 331.716 C 339.074 331.935,338.474 332.538,337.961 333.056 C 337.447 333.574,336.794 334.197,336.510 334.439 C 336.225 334.682,335.616 335.310,335.157 335.835 C 334.697 336.360,333.934 337.054,333.460 337.377 C 332.987 337.700,332.511 338.239,332.404 338.574 C 332.296 338.908,331.668 339.541,331.007 339.980 C 330.346 340.419,329.705 341.092,329.582 341.476 C 329.459 341.859,329.123 342.173,328.835 342.173 C 328.548 342.173,327.177 343.250,325.790 344.566 C 324.402 345.882,323.109 346.959,322.916 346.959 C 322.723 346.959,321.993 347.542,321.294 348.255 C 320.594 348.968,319.535 349.804,318.941 350.114 C 318.346 350.423,317.758 350.997,317.633 351.389 C 317.509 351.782,317.033 352.221,316.577 352.366 C 316.120 352.511,314.710 353.418,313.444 354.381 C 312.178 355.344,311.011 356.132,310.852 356.132 C 310.693 356.132,310.272 356.465,309.917 356.872 C 309.562 357.279,308.868 357.740,308.375 357.896 C 307.881 358.052,307.478 358.347,307.478 358.551 C 307.478 358.756,307.248 358.923,306.967 358.923 C 306.687 358.923,306.199 359.282,305.882 359.721 C 305.566 360.160,304.988 360.518,304.598 360.518 C 304.208 360.518,303.888 360.686,303.888 360.890 C 303.888 361.095,303.485 361.390,302.991 361.546 C 302.498 361.701,301.803 362.162,301.449 362.570 C 301.094 362.977,300.511 363.310,300.153 363.310 C 299.795 363.310,299.501 363.470,299.501 363.666 C 299.501 363.861,299.053 364.134,298.504 364.271 C 297.956 364.409,297.507 364.698,297.507 364.913 C 297.507 365.128,297.238 365.304,296.909 365.304 C 296.580 365.304,296.311 365.484,296.311 365.703 C 296.311 365.922,295.952 366.102,295.513 366.102 C 295.075 366.102,294.716 366.262,294.716 366.457 C 294.716 366.653,294.267 366.925,293.719 367.063 C 293.170 367.201,292.722 367.489,292.722 367.705 C 292.722 367.920,292.363 368.096,291.924 368.096 C 291.486 368.096,291.127 368.275,291.127 368.495 C 291.127 368.714,290.857 368.893,290.528 368.893 C 290.199 368.893,289.930 369.053,289.930 369.248 C 289.930 369.443,289.302 369.720,288.534 369.864 C 287.767 370.008,287.139 370.297,287.139 370.507 C 287.139 370.716,286.780 370.887,286.341 370.887 C 285.902 370.887,285.543 371.067,285.543 371.286 C 285.543 371.505,285.274 371.685,284.945 371.685 C 284.616 371.685,284.347 371.864,284.347 372.084 C 284.347 372.303,283.988 372.483,283.549 372.483 C 283.111 372.483,282.752 372.642,282.752 372.837 C 282.752 373.032,282.124 373.309,281.356 373.453 C 280.588 373.597,279.960 373.886,279.960 374.096 C 279.960 374.305,279.511 374.477,278.963 374.477 C 278.415 374.477,277.966 374.656,277.966 374.875 C 277.966 375.095,277.607 375.274,277.168 375.274 C 276.730 375.274,276.371 375.439,276.371 375.641 C 276.371 375.843,275.788 376.128,275.075 376.273 C 273.375 376.620,271.585 377.385,271.585 377.764 C 271.585 377.930,271.137 378.066,270.588 378.066 C 270.040 378.066,269.591 378.234,269.591 378.440 C 269.591 378.646,268.784 378.936,267.797 379.084 C 266.810 379.232,266.002 379.512,266.002 379.706 C 266.002 379.901,265.564 380.060,265.029 380.060 C 264.493 380.060,263.944 380.239,263.809 380.459 C 263.673 380.678,263.124 380.857,262.589 380.857 C 262.053 380.857,261.615 380.994,261.615 381.162 C 261.615 381.448,258.783 382.295,256.331 382.742 C 255.728 382.852,255.234 383.101,255.234 383.296 C 255.234 383.490,254.606 383.649,253.838 383.649 C 253.071 383.649,252.443 383.829,252.443 384.048 C 252.443 384.267,251.994 384.447,251.446 384.447 C 250.897 384.447,250.449 384.608,250.449 384.805 C 250.449 385.002,249.192 385.289,247.657 385.444 C 246.122 385.598,244.865 385.885,244.865 386.082 C 244.865 386.279,244.058 386.441,243.071 386.441 C 242.084 386.441,241.276 386.620,241.276 386.839 C 241.276 387.059,240.469 387.238,239.482 387.238 C 238.495 387.238,237.687 387.401,237.687 387.600 C 237.687 387.799,235.982 388.089,233.898 388.246 C 231.815 388.402,230.110 388.688,230.110 388.881 C 230.110 389.074,228.943 389.232,227.517 389.232 C 226.055 389.232,224.925 389.406,224.925 389.631 C 224.925 389.865,223.540 390.030,221.569 390.030 C 219.398 390.030,218.158 390.192,218.060 390.487 C 217.842 391.141,184.950 391.141,184.732 390.487 C 184.633 390.192,183.393 390.030,181.223 390.030 C 179.251 390.030,177.866 389.865,177.866 389.631 C 177.866 389.406,176.736 389.232,175.274 389.232 C 173.848 389.232,172.682 389.074,172.682 388.881 C 172.682 388.688,170.977 388.402,168.893 388.246 C 166.810 388.089,165.105 387.799,165.105 387.600 C 165.105 387.401,164.297 387.238,163.310 387.238 C 162.323 387.238,161.515 387.059,161.515 386.839 C 161.515 386.620,160.708 386.441,159.721 386.441 C 158.734 386.441,157.926 386.279,157.926 386.082 C 157.926 385.885,156.670 385.598,155.135 385.444 C 153.599 385.289,152.343 385.002,152.343 384.805 C 152.343 384.608,151.905 384.447,151.369 384.447 C 150.834 384.447,150.285 384.267,150.150 384.048 C 150.014 383.829,149.375 383.649,148.730 383.649 C 148.085 383.649,147.557 383.490,147.557 383.296 C 147.557 383.101,147.064 382.852,146.461 382.742 C 144.009 382.295,141.176 381.448,141.176 381.162 C 141.176 380.994,140.738 380.857,140.203 380.857 C 139.668 380.857,139.119 380.678,138.983 380.459 C 138.847 380.239,138.299 380.060,137.763 380.060 C 137.228 380.060,136.790 379.901,136.790 379.706 C 136.790 379.512,135.982 379.232,134.995 379.084 C 134.008 378.936,133.200 378.646,133.200 378.440 C 133.200 378.234,132.752 378.066,132.203 378.066 C 131.655 378.066,131.206 377.886,131.206 377.667 C 131.206 377.448,130.958 377.268,130.654 377.268 C 130.350 377.268,129.587 377.000,128.959 376.672 C 128.331 376.345,127.502 376.076,127.119 376.074 C 126.735 376.073,126.421 375.892,126.421 375.673 C 126.421 375.454,126.072 375.274,125.647 375.274 C 125.221 375.274,124.762 375.095,124.626 374.875 C 124.491 374.656,124.031 374.477,123.606 374.477 C 123.180 374.477,122.832 374.305,122.832 374.096 C 122.832 373.886,122.203 373.597,121.436 373.453 C 120.668 373.309,120.040 373.065,120.040 372.911 C 120.040 372.757,119.412 372.385,118.644 372.084 C 117.876 371.783,117.248 371.390,117.248 371.212 C 117.248 371.033,116.934 370.882,116.550 370.875 C 116.167 370.868,115.504 370.598,115.078 370.276 C 114.653 369.954,113.980 369.691,113.583 369.691 C 113.186 369.691,112.861 369.511,112.861 369.292 C 112.861 369.073,112.592 368.893,112.263 368.893 C 111.934 368.893,111.665 368.714,111.665 368.495 C 111.665 368.275,111.306 368.096,110.867 368.096 C 110.429 368.096,110.070 367.916,110.070 367.697 C 110.070 367.478,109.813 367.298,109.500 367.298 C 109.187 367.298,108.693 367.074,108.403 366.800 C 108.114 366.525,107.338 366.032,106.680 365.703 C 106.022 365.374,105.246 364.880,104.957 364.606 C 104.667 364.332,104.173 364.108,103.860 364.108 C 103.547 364.108,103.290 363.928,103.290 363.709 C 103.290 363.490,102.931 363.310,102.493 363.310 C 102.054 363.310,101.695 363.159,101.695 362.975 C 101.695 362.790,100.842 362.157,99.801 361.567 C 96.890 359.920,96.374 359.576,95.672 358.824 C 95.314 358.440,94.831 358.126,94.598 358.126 C 94.365 358.126,93.937 357.901,93.648 357.627 C 92.368 356.416,90.132 354.935,89.585 354.935 C 89.256 354.935,88.879 354.594,88.746 354.176 C 88.613 353.759,87.928 353.142,87.224 352.805 C 86.519 352.469,85.678 351.823,85.356 351.371 C 85.033 350.918,84.527 350.548,84.232 350.548 C 83.937 350.548,83.103 349.920,82.379 349.153 C 81.655 348.385,80.782 347.757,80.438 347.757 C 80.095 347.757,79.701 347.398,79.561 346.959 C 79.422 346.520,79.163 346.162,78.986 346.162 C 78.809 346.162,77.980 345.535,77.144 344.769 C 76.308 344.003,75.299 343.273,74.901 343.147 C 74.503 343.021,74.177 342.758,74.177 342.564 C 74.177 342.223,73.368 341.350,71.345 339.509 C 70.819 339.031,70.181 338.403,69.927 338.113 C 69.673 337.824,68.416 336.576,67.135 335.339 C 65.854 334.102,64.411 332.667,63.928 332.149 C 63.445 331.630,62.842 331.001,62.589 330.751 C 62.335 330.501,61.512 329.648,60.761 328.857 C 60.010 328.065,59.222 327.418,59.010 327.418 C 58.798 327.418,58.624 327.142,58.624 326.804 C 58.624 326.466,57.951 325.499,57.129 324.653 C 56.306 323.808,55.274 322.619,54.835 322.011 C 54.397 321.403,53.852 320.711,53.625 320.473 C 53.397 320.235,52.681 319.322,52.034 318.445 C 51.386 317.567,50.450 316.485,49.954 316.039 C 49.459 315.593,49.053 315.009,49.053 314.739 C 49.053 314.470,48.520 313.692,47.869 313.011 C 47.217 312.329,46.577 311.433,46.446 311.020 C 46.315 310.607,46.040 310.269,45.836 310.269 C 45.631 310.269,45.464 310.066,45.464 309.817 C 45.464 309.569,45.130 309.075,44.723 308.721 C 44.316 308.366,43.855 307.672,43.699 307.178 C 43.543 306.685,43.248 306.281,43.044 306.281 C 42.839 306.281,42.672 306.046,42.672 305.758 C 42.672 305.470,42.349 304.887,41.954 304.462 C 41.559 304.037,41.112 303.420,40.959 303.091 C 40.469 302.030,39.698 300.925,38.983 300.258 C 38.599 299.900,38.285 299.314,38.285 298.956 C 38.285 298.598,38.151 298.304,37.986 298.304 C 37.822 298.303,37.355 297.495,36.950 296.509 C 36.544 295.523,36.050 294.716,35.853 294.716 C 35.655 294.716,35.494 294.447,35.494 294.118 C 35.494 293.789,35.314 293.519,35.095 293.519 C 34.875 293.519,34.696 293.233,34.696 292.883 C 34.696 292.074,33.512 289.927,32.602 289.086 C 32.218 288.731,31.904 288.239,31.904 287.992 C 31.904 287.271,30.549 284.347,30.215 284.347 C 30.047 284.347,29.910 283.988,29.910 283.549 C 29.910 283.111,29.752 282.752,29.558 282.752 C 29.364 282.752,29.113 282.348,29.000 281.854 C 28.726 280.657,27.775 278.216,27.485 277.966 C 27.358 277.856,27.000 277.183,26.690 276.471 C 26.380 275.758,26.011 275.174,25.870 275.174 C 25.729 275.174,25.493 274.367,25.345 273.380 C 25.197 272.393,24.907 271.585,24.701 271.585 C 24.495 271.585,24.327 271.137,24.327 270.588 C 24.327 270.040,24.148 269.591,23.928 269.591 C 23.709 269.591,23.529 269.232,23.529 268.794 C 23.529 268.355,23.367 267.996,23.168 267.996 C 22.969 267.996,22.683 267.099,22.532 266.002 C 22.382 264.905,22.096 264.008,21.897 264.008 C 21.698 264.008,21.535 263.559,21.535 263.011 C 21.535 262.463,21.356 262.014,21.137 262.014 C 20.917 262.014,20.738 261.476,20.738 260.818 C 20.738 260.160,20.579 259.621,20.384 259.621 C 20.190 259.621,19.910 258.818,19.763 257.836 C 19.616 256.854,19.326 255.946,19.120 255.818 C 18.913 255.691,18.744 255.058,18.744 254.413 C 18.744 253.768,18.564 253.240,18.345 253.240 C 18.126 253.240,17.946 252.612,17.946 251.844 C 17.946 251.077,17.767 250.449,17.547 250.449 C 17.328 250.449,17.149 249.821,17.149 249.053 C 17.149 248.285,16.987 247.657,16.790 247.657 C 16.593 247.657,16.306 246.401,16.152 244.865 C 15.997 243.330,15.710 242.074,15.513 242.074 C 15.316 242.074,15.155 241.367,15.155 240.502 C 15.155 239.638,14.975 238.820,14.756 238.684 C 14.536 238.548,14.357 237.741,14.357 236.889 C 14.357 236.038,14.192 235.239,13.990 235.114 C 13.788 234.990,13.495 233.091,13.340 230.895 C 13.184 228.699,12.900 226.806,12.710 226.688 C 12.519 226.570,12.363 225.228,12.363 223.705 C 12.363 222.126,12.192 220.937,11.964 220.937 C 11.724 220.937,11.565 219.276,11.565 216.750 C 11.565 214.224,11.407 212.562,11.167 212.562 C 10.909 212.562,10.768 208.242,10.768 200.399 C 10.768 192.556,10.909 188.235,11.167 188.235 C 11.407 188.235,11.565 186.574,11.565 184.048 C 11.565 181.522,11.724 179.860,11.964 179.860 C 12.192 179.860,12.363 178.664,12.363 177.069 C 12.363 175.533,12.521 174.277,12.714 174.277 C 12.907 174.277,13.194 172.393,13.351 170.090 C 13.508 167.787,13.798 165.902,13.997 165.902 C 14.195 165.902,14.357 165.095,14.357 164.108 C 14.357 163.121,14.536 162.313,14.756 162.313 C 14.975 162.313,15.155 161.505,15.155 160.518 C 15.155 159.531,15.316 158.724,15.513 158.724 C 15.710 158.724,15.997 157.468,16.152 155.932 C 16.306 154.397,16.593 153.141,16.790 153.141 C 16.987 153.141,17.149 152.512,17.149 151.745 C 17.149 150.977,17.328 150.349,17.547 150.349 C 17.767 150.349,17.946 150.048,17.946 149.679 C 17.946 148.956,18.645 146.558,19.158 145.522 C 19.332 145.171,19.600 144.049,19.753 143.030 C 19.906 142.010,20.190 141.176,20.384 141.176 C 20.579 141.176,20.738 140.728,20.738 140.179 C 20.738 139.631,20.917 139.182,21.137 139.182 C 21.356 139.182,21.535 138.744,21.535 138.209 C 21.535 137.674,21.715 137.125,21.934 136.989 C 22.154 136.853,22.333 136.376,22.333 135.929 C 22.333 135.184,23.050 133.239,23.962 131.511 C 24.163 131.130,24.327 130.457,24.327 130.015 C 24.327 129.574,24.498 129.212,24.708 129.212 C 24.917 129.212,25.206 128.584,25.350 127.817 C 25.494 127.049,25.772 126.421,25.967 126.421 C 26.162 126.421,26.321 125.972,26.321 125.424 C 26.321 124.875,26.500 124.427,26.720 124.427 C 26.939 124.427,27.119 124.083,27.119 123.662 C 27.119 123.242,27.253 122.838,27.418 122.765 C 27.818 122.587,29.113 119.758,29.113 119.063 C 29.113 118.759,29.254 118.451,29.426 118.378 C 29.815 118.213,31.904 113.949,31.904 113.320 C 31.904 113.068,32.084 112.861,32.303 112.861 C 32.522 112.861,32.702 112.592,32.702 112.263 C 32.702 111.934,32.881 111.665,33.101 111.665 C 33.320 111.665,33.500 111.306,33.500 110.867 C 33.500 110.429,33.671 110.070,33.880 110.070 C 34.090 110.070,34.379 109.442,34.523 108.674 C 34.667 107.906,34.944 107.278,35.139 107.278 C 35.334 107.278,35.494 107.049,35.494 106.768 C 35.494 106.487,35.846 106.004,36.276 105.694 C 36.707 105.383,37.180 104.581,37.327 103.911 C 37.474 103.241,37.929 102.402,38.339 102.047 C 38.748 101.692,39.083 101.199,39.083 100.950 C 39.083 100.702,39.262 100.499,39.482 100.499 C 39.701 100.499,39.880 100.140,39.880 99.701 C 39.880 99.262,40.048 98.903,40.252 98.903 C 40.457 98.903,40.752 98.500,40.908 98.006 C 41.063 97.512,41.524 96.818,41.931 96.464 C 42.339 96.109,42.672 95.637,42.672 95.416 C 42.672 95.194,42.941 94.790,43.270 94.516 C 43.599 94.243,43.868 93.726,43.868 93.367 C 43.868 93.008,44.227 92.490,44.666 92.216 C 45.105 91.942,45.464 91.533,45.464 91.306 C 45.464 90.918,45.777 90.465,46.959 89.147 C 47.233 88.842,47.458 88.481,47.458 88.345 C 47.458 88.210,47.906 87.651,48.455 87.102 C 49.003 86.554,49.452 85.916,49.452 85.685 C 49.452 85.454,49.990 84.762,50.648 84.148 C 51.306 83.533,51.844 82.915,51.844 82.774 C 51.844 82.490,52.041 82.240,54.037 79.985 C 54.802 79.122,55.530 78.090,55.657 77.692 C 55.783 77.295,56.045 76.969,56.240 76.969 C 56.713 76.969,59.422 74.094,59.422 73.592 C 59.422 73.299,73.190 59.712,75.802 57.428 C 76.930 56.441,78.275 55.229,78.789 54.736 C 79.304 54.242,79.912 53.838,80.141 53.838 C 80.371 53.838,80.558 53.671,80.558 53.467 C 80.558 53.262,80.908 52.984,81.336 52.848 C 81.763 52.712,82.224 52.252,82.359 51.824 C 82.495 51.397,82.873 51.047,83.199 51.047 C 83.525 51.047,84.366 50.509,85.066 49.852 C 85.767 49.195,86.467 48.657,86.622 48.656 C 86.776 48.655,87.352 48.205,87.900 47.657 C 88.448 47.109,89.076 46.660,89.296 46.660 C 89.515 46.660,90.143 46.211,90.692 45.663 C 91.240 45.115,91.876 44.666,92.106 44.666 C 92.335 44.666,92.522 44.499,92.522 44.294 C 92.522 44.090,92.850 43.818,93.250 43.691 C 93.650 43.564,94.323 43.148,94.745 42.767 C 95.168 42.386,96.199 41.715,97.036 41.276 C 97.873 40.837,98.898 40.165,99.312 39.781 C 99.727 39.397,100.253 39.083,100.482 39.083 C 100.710 39.083,100.897 38.938,100.897 38.761 C 100.897 38.584,101.660 38.105,102.592 37.697 C 103.524 37.289,104.577 36.627,104.932 36.225 C 105.287 35.823,105.870 35.494,106.228 35.494 C 106.586 35.494,106.879 35.328,106.879 35.126 C 106.879 34.924,107.418 34.641,108.076 34.497 C 108.734 34.352,109.272 34.069,109.272 33.867 C 109.272 33.665,109.508 33.500,109.795 33.500 C 110.083 33.500,110.708 33.137,111.183 32.693 C 111.659 32.250,112.590 31.779,113.253 31.647 C 113.915 31.514,114.457 31.249,114.457 31.057 C 114.457 30.865,114.726 30.708,115.055 30.708 C 115.384 30.708,115.653 30.528,115.653 30.309 C 115.653 30.090,116.012 29.910,116.451 29.910 C 116.889 29.910,117.248 29.751,117.248 29.556 C 117.248 29.361,117.876 29.084,118.644 28.940 C 119.412 28.796,120.040 28.506,120.040 28.297 C 120.040 28.088,120.399 27.916,120.837 27.916 C 121.276 27.916,121.635 27.737,121.635 27.517 C 121.635 27.298,121.907 27.119,122.239 27.119 C 122.807 27.119,124.388 26.378,124.826 25.907 C 124.935 25.789,126.147 25.340,127.517 24.910 C 128.888 24.480,130.010 23.993,130.010 23.829 C 130.010 23.664,130.279 23.529,130.608 23.529 C 130.937 23.529,131.206 23.350,131.206 23.131 C 131.206 22.911,131.610 22.733,132.104 22.734 C 133.263 22.736,136.790 21.475,136.790 21.058 C 136.790 20.882,137.328 20.738,137.986 20.738 C 138.644 20.738,139.182 20.575,139.182 20.376 C 139.182 20.178,140.080 19.892,141.176 19.741 C 142.273 19.590,143.170 19.304,143.170 19.105 C 143.170 18.906,143.709 18.744,144.367 18.744 C 145.025 18.744,145.563 18.564,145.563 18.345 C 145.563 18.126,146.014 17.946,146.566 17.946 C 147.117 17.946,147.880 17.774,148.261 17.563 C 149.032 17.137,152.145 16.386,154.437 16.073 C 155.259 15.960,155.932 15.708,155.932 15.511 C 155.932 15.315,156.560 15.155,157.328 15.155 C 158.096 15.155,158.724 14.975,158.724 14.756 C 158.724 14.536,159.406 14.357,160.239 14.357 C 161.073 14.357,161.926 14.185,162.136 13.976 C 162.346 13.766,164.003 13.470,165.818 13.319 C 167.633 13.168,169.212 12.891,169.328 12.703 C 169.444 12.516,170.425 12.363,171.509 12.363 C 172.593 12.363,173.480 12.183,173.480 11.964 C 173.480 11.736,174.676 11.565,176.271 11.565 C 177.807 11.565,179.063 11.393,179.063 11.181 C 179.063 10.313,223.349 10.227,223.638 11.095 M198.477 52.240 C 191.433 53.501,189.357 58.173,194.689 60.767 C 201.495 64.079,212.562 61.771,212.562 57.042 C 212.562 53.700,204.903 51.089,198.477 52.240 M188.634 106.423 C 188.634 106.793,190.267 106.951,203.589 107.875 C 235.811 110.108,250.656 113.406,246.828 117.481 C 241.031 123.652,185.063 127.420,123.330 125.794 C 115.272 125.582,112.463 125.626,112.463 125.964 C 112.463 126.285,114.121 126.421,118.046 126.421 C 121.502 126.421,123.629 126.573,123.629 126.820 C 123.629 127.072,126.594 127.218,131.725 127.218 C 137.670 127.218,139.953 127.351,140.319 127.717 C 140.714 128.111,153.744 128.215,202.792 128.215 C 251.839 128.215,264.870 128.111,265.264 127.717 C 265.630 127.351,267.914 127.218,273.858 127.218 C 278.990 127.218,281.954 127.072,281.954 126.820 C 281.954 126.571,284.214 126.421,287.936 126.421 C 291.226 126.421,293.918 126.268,293.918 126.080 C 293.918 125.893,298.001 125.612,302.991 125.455 C 307.981 125.298,312.234 125.002,312.443 124.798 C 312.651 124.594,314.300 124.427,316.108 124.427 C 317.916 124.427,319.506 124.247,319.641 124.028 C 319.777 123.809,321.123 123.629,322.632 123.629 C 324.142 123.629,325.471 123.477,325.586 123.290 C 325.701 123.104,327.528 122.829,329.645 122.681 C 331.762 122.532,333.821 122.236,334.219 122.023 C 334.617 121.809,335.582 121.635,336.365 121.635 C 337.147 121.635,337.787 121.456,337.787 121.236 C 337.787 121.017,338.415 120.837,339.182 120.837 C 339.950 120.837,340.578 120.658,340.578 120.439 C 340.578 120.219,341.027 120.040,341.575 120.040 C 342.124 120.040,342.572 119.873,342.572 119.668 C 342.572 119.463,342.931 119.182,343.370 119.043 C 344.943 118.544,344.102 115.254,342.401 115.254 C 342.057 115.254,341.775 115.075,341.775 114.855 C 341.775 114.636,341.326 114.457,340.778 114.457 C 340.229 114.457,339.781 114.288,339.781 114.082 C 339.781 113.876,338.524 113.584,336.989 113.432 C 335.454 113.281,334.197 113.001,334.197 112.810 C 334.197 112.619,333.210 112.463,332.004 112.463 C 330.798 112.463,329.811 112.283,329.811 112.064 C 329.811 111.844,328.812 111.665,327.591 111.665 C 326.370 111.665,325.061 111.499,324.681 111.296 C 324.302 111.093,321.173 110.798,317.729 110.640 C 314.284 110.483,311.466 110.200,311.466 110.012 C 311.466 109.825,309.592 109.671,307.302 109.671 C 304.956 109.671,303.030 109.497,302.891 109.272 C 302.748 109.041,300.569 108.873,297.707 108.873 C 294.845 108.873,292.665 108.706,292.522 108.475 C 292.375 108.237,289.802 108.076,286.144 108.076 C 282.771 108.076,279.553 107.901,278.992 107.688 C 278.412 107.468,268.753 107.181,256.633 107.025 C 244.897 106.874,235.294 106.600,235.294 106.416 C 235.294 106.232,224.796 106.082,211.964 106.082 C 199.133 106.082,188.634 106.235,188.634 106.423 M173.283 132.398 C 173.123 132.658,168.130 132.802,159.298 132.802 C 150.408 132.802,145.563 132.942,145.563 133.200 C 145.563 133.454,142.439 133.599,136.989 133.599 C 132.273 133.599,128.415 133.753,128.415 133.941 C 128.415 134.129,123.076 134.412,116.550 134.570 C 110.025 134.728,104.515 135.023,104.307 135.225 C 104.099 135.428,101.900 135.593,99.422 135.593 C 96.683 135.593,94.915 135.750,94.915 135.992 C 94.915 136.227,93.519 136.391,91.525 136.391 C 89.661 136.391,88.136 136.545,88.136 136.733 C 88.136 137.322,92.691 137.587,102.812 137.587 C 139.431 137.587,162.560 144.107,145.060 149.496 C 135.402 152.470,118.689 153.730,92.622 153.451 C 82.697 153.344,74.576 153.410,74.576 153.598 C 74.576 153.785,75.653 153.938,76.969 153.938 C 78.298 153.938,79.362 154.115,79.362 154.337 C 79.362 154.568,80.634 154.736,82.379 154.736 C 84.039 154.736,85.709 154.903,86.092 155.108 C 86.474 155.312,90.321 155.608,94.640 155.765 C 98.959 155.922,102.493 156.204,102.493 156.390 C 102.493 156.577,104.915 156.730,107.876 156.730 C 111.200 156.730,113.260 156.882,113.260 157.129 C 113.260 157.377,115.529 157.527,119.268 157.527 C 122.573 157.527,125.592 157.696,125.978 157.903 C 126.367 158.111,135.572 158.404,146.689 158.563 C 157.695 158.720,166.700 159.000,166.700 159.185 C 166.700 159.370,184.377 159.521,205.982 159.521 C 227.587 159.521,245.264 159.370,245.264 159.185 C 245.264 159.000,254.282 158.721,265.304 158.564 C 276.906 158.399,285.503 158.121,285.723 157.903 C 285.931 157.697,288.937 157.527,292.403 157.527 C 296.338 157.527,298.704 157.378,298.704 157.129 C 298.704 156.882,300.764 156.730,304.088 156.730 C 307.049 156.730,309.472 156.577,309.472 156.390 C 309.472 156.204,313.005 155.922,317.324 155.765 C 321.644 155.608,325.490 155.312,325.873 155.108 C 326.255 154.903,327.925 154.736,329.585 154.736 C 331.331 154.736,332.602 154.568,332.602 154.337 C 332.602 154.109,333.799 153.938,335.394 153.938 C 336.929 153.938,338.185 153.786,338.185 153.599 C 338.185 153.413,340.180 153.139,342.617 152.991 C 345.054 152.843,347.375 152.547,347.775 152.333 C 348.175 152.119,349.232 151.944,350.123 151.944 C 351.015 151.944,351.745 151.765,351.745 151.545 C 351.745 151.326,352.373 151.147,353.141 151.147 C 353.908 151.147,354.536 150.967,354.536 150.748 C 354.536 150.528,355.165 150.349,355.932 150.349 C 356.700 150.349,357.328 150.190,357.328 149.995 C 357.328 149.801,358.136 149.521,359.123 149.373 C 360.110 149.225,360.917 148.978,360.917 148.824 C 360.917 148.670,361.321 148.367,361.815 148.150 C 363.259 147.517,363.353 144.094,361.936 143.738 C 361.375 143.598,360.917 143.323,360.917 143.127 C 360.917 142.932,360.558 142.772,360.120 142.772 C 359.681 142.772,359.322 142.592,359.322 142.373 C 359.322 142.154,358.884 141.974,358.349 141.974 C 357.813 141.974,357.276 141.814,357.156 141.619 C 356.916 141.231,355.641 140.969,350.648 140.281 C 348.838 140.031,347.358 139.682,347.358 139.505 C 347.358 139.327,346.281 139.182,344.965 139.182 C 343.636 139.182,342.572 139.005,342.572 138.784 C 342.572 138.564,341.535 138.385,340.259 138.385 C 338.987 138.385,337.776 138.219,337.567 138.016 C 337.359 137.812,334.452 137.518,331.107 137.362 C 327.762 137.205,325.025 136.923,325.025 136.734 C 325.025 136.545,323.230 136.391,321.037 136.391 C 318.644 136.391,317.049 136.231,317.049 135.992 C 317.049 135.750,315.281 135.593,312.542 135.593 C 310.064 135.593,307.865 135.428,307.657 135.225 C 307.449 135.023,301.939 134.728,295.414 134.570 C 288.888 134.412,283.549 134.129,283.549 133.941 C 283.549 133.753,279.727 133.599,275.055 133.599 C 270.076 133.599,266.400 133.438,266.172 133.211 C 265.428 132.467,173.736 131.664,173.283 132.398 M164.706 162.712 C 164.706 162.971,159.123 163.111,148.754 163.111 C 138.385 163.111,132.802 163.250,132.802 163.509 C 132.802 163.764,129.279 163.908,123.031 163.908 C 117.657 163.908,113.260 164.062,113.260 164.250 C 113.260 164.437,107.293 164.720,100.000 164.878 C 92.707 165.036,86.569 165.331,86.361 165.534 C 86.153 165.737,83.864 165.902,81.276 165.902 C 78.405 165.902,76.570 166.058,76.570 166.301 C 76.570 166.542,74.916 166.700,72.406 166.700 C 70.061 166.700,68.135 166.874,67.996 167.099 C 67.860 167.318,66.504 167.498,64.981 167.498 C 61.822 167.498,61.278 168.121,64.108 168.500 C 74.997 169.955,79.761 171.641,79.761 174.037 C 79.761 176.509,75.003 178.353,65.703 179.485 C 61.362 180.014,60.540 180.658,64.207 180.658 C 65.537 180.658,66.600 180.835,66.600 181.057 C 66.600 181.296,68.169 181.456,70.508 181.456 C 72.658 181.456,74.587 181.623,74.796 181.827 C 75.004 182.031,79.885 182.327,85.643 182.484 C 91.401 182.641,96.112 182.923,96.112 183.110 C 96.112 183.297,99.342 183.450,103.290 183.450 C 107.810 183.450,110.469 183.597,110.469 183.848 C 110.469 184.103,113.832 184.247,119.761 184.247 C 125.058 184.247,129.216 184.409,129.432 184.624 C 130.642 185.827,274.776 185.823,274.776 184.620 C 274.776 184.400,278.595 184.247,284.124 184.247 C 289.926 184.247,293.566 184.096,293.719 183.848 C 293.868 183.607,296.714 183.450,300.921 183.450 C 304.746 183.450,307.876 183.297,307.876 183.110 C 307.876 182.923,312.587 182.641,318.345 182.483 C 324.142 182.324,328.873 182.031,328.946 181.826 C 329.020 181.622,330.938 181.456,333.210 181.456 C 335.534 181.456,337.449 181.281,337.587 181.057 C 337.723 180.837,339.349 180.658,341.200 180.658 C 343.051 180.658,344.566 180.502,344.566 180.310 C 344.566 180.119,346.899 179.834,349.750 179.676 C 352.600 179.518,355.034 179.226,355.157 179.027 C 355.280 178.827,356.268 178.664,357.352 178.664 C 358.435 178.664,359.322 178.485,359.322 178.265 C 359.322 178.046,359.953 177.866,360.723 177.866 C 361.494 177.866,362.436 177.697,362.817 177.489 C 363.198 177.282,364.182 177.005,365.005 176.873 C 365.828 176.742,366.500 176.483,366.500 176.300 C 366.500 176.116,366.859 175.872,367.298 175.757 C 367.914 175.596,368.096 175.213,368.096 174.078 C 368.096 172.943,367.914 172.560,367.298 172.399 C 366.859 172.284,366.500 172.032,366.500 171.838 C 366.500 171.644,366.088 171.486,365.583 171.486 C 365.079 171.486,364.488 171.307,364.270 171.089 C 364.052 170.871,362.760 170.576,361.398 170.434 C 360.037 170.292,358.923 170.022,358.923 169.834 C 358.923 169.645,357.936 169.492,356.730 169.492 C 355.523 169.492,354.536 169.312,354.536 169.093 C 354.536 168.873,353.500 168.694,352.223 168.694 C 350.951 168.694,349.740 168.528,349.531 168.325 C 349.323 168.123,346.236 167.829,342.672 167.672 C 339.108 167.515,336.191 167.232,336.191 167.043 C 336.191 166.854,334.307 166.700,332.004 166.700 C 329.478 166.700,327.817 166.542,327.817 166.301 C 327.817 166.057,325.916 165.902,322.911 165.902 C 320.213 165.902,317.835 165.736,317.627 165.532 C 317.419 165.329,311.365 165.033,304.175 164.875 C 296.984 164.717,291.006 164.435,290.891 164.248 C 290.775 164.061,286.295 163.908,280.934 163.908 C 274.701 163.908,271.186 163.764,271.186 163.509 C 271.186 163.250,265.678 163.111,255.457 163.111 C 245.401 163.111,239.639 162.967,239.482 162.712 C 239.320 162.451,226.383 162.313,201.970 162.313 C 177.393 162.313,164.706 162.449,164.706 162.712 M161.715 190.229 C 161.557 190.485,155.604 190.628,145.165 190.628 C 136.197 190.628,128.767 190.780,128.652 190.965 C 128.538 191.151,120.507 191.432,110.806 191.590 C 101.105 191.748,92.855 192.045,92.473 192.250 C 92.090 192.455,88.984 192.622,85.570 192.622 C 81.697 192.622,79.362 192.772,79.362 193.021 C 79.362 193.267,77.301 193.420,73.978 193.420 C 70.655 193.420,68.594 193.572,68.594 193.819 C 68.594 194.061,66.800 194.217,64.008 194.217 C 61.486 194.217,59.422 194.375,59.422 194.568 C 59.422 194.760,56.461 195.049,52.841 195.208 C 49.222 195.368,46.261 195.659,46.261 195.855 C 46.261 196.051,45.813 196.211,45.264 196.211 C 44.023 196.211,43.957 196.869,45.165 197.205 C 48.919 198.248,50.285 199.814,48.835 201.416 C 47.620 202.759,44.444 203.447,38.385 203.680 C 33.227 203.878,30.190 204.586,34.497 204.586 C 35.484 204.586,36.291 204.766,36.291 204.985 C 36.291 205.204,37.088 205.384,38.062 205.384 C 39.036 205.384,39.944 205.563,40.080 205.783 C 40.215 206.002,41.314 206.181,42.522 206.181 C 43.730 206.181,45.034 206.350,45.420 206.557 C 45.806 206.764,48.845 207.059,52.174 207.214 C 55.502 207.369,58.225 207.649,58.225 207.836 C 58.225 208.023,60.099 208.175,62.389 208.175 C 64.735 208.175,66.661 208.350,66.800 208.574 C 66.942 208.804,69.072 208.973,71.834 208.973 C 74.468 208.973,76.932 209.139,77.310 209.341 C 77.687 209.543,83.957 209.839,91.242 209.998 C 98.526 210.158,104.487 210.441,104.487 210.628 C 104.487 210.814,108.973 210.967,114.457 210.967 C 120.677 210.967,124.427 211.114,124.427 211.356 C 124.427 212.525,277.769 212.520,278.938 211.352 C 279.163 211.126,283.325 210.967,289.013 210.967 C 294.343 210.967,298.704 210.814,298.704 210.627 C 298.704 210.439,304.761 210.157,312.164 209.999 C 319.566 209.841,325.794 209.546,326.002 209.343 C 326.210 209.139,328.588 208.973,331.286 208.973 C 334.290 208.973,336.191 208.819,336.191 208.574 C 336.191 208.333,337.912 208.175,340.555 208.175 C 342.955 208.175,345.012 208.023,345.128 207.836 C 345.243 207.650,348.075 207.370,351.420 207.214 C 354.766 207.058,357.689 206.779,357.914 206.594 C 358.140 206.409,359.402 206.156,360.718 206.031 C 365.682 205.562,367.298 205.296,367.298 204.947 C 367.298 204.748,368.005 204.586,368.870 204.586 C 369.734 204.586,370.537 204.431,370.655 204.241 C 370.772 204.051,371.516 203.791,372.309 203.662 C 377.620 202.800,375.159 198.500,369.028 197.927 C 367.638 197.797,366.500 197.538,366.500 197.350 C 366.500 197.162,365.614 197.009,364.530 197.009 C 363.446 197.009,362.449 196.830,362.313 196.610 C 362.178 196.391,361.000 196.211,359.697 196.211 C 358.394 196.211,357.328 196.050,357.328 195.852 C 357.328 195.654,354.277 195.362,350.548 195.203 C 346.820 195.043,343.769 194.756,343.769 194.565 C 343.769 194.374,341.805 194.217,339.405 194.217 C 336.927 194.217,334.936 194.045,334.796 193.819 C 334.652 193.586,332.399 193.420,329.388 193.420 C 326.213 193.420,324.227 193.266,324.227 193.021 C 324.227 192.772,321.892 192.622,318.020 192.622 C 314.605 192.622,311.498 192.454,311.114 192.248 C 310.730 192.043,302.397 191.746,292.596 191.588 C 282.795 191.431,274.776 191.150,274.776 190.965 C 274.776 190.780,267.339 190.628,258.249 190.628 C 247.661 190.628,241.633 190.485,241.476 190.229 C 241.314 189.968,227.588 189.831,201.595 189.831 C 175.603 189.831,161.876 189.968,161.715 190.229 M164.108 216.949 C 163.950 217.205,157.922 217.348,147.334 217.348 C 136.582 217.348,130.808 217.487,130.808 217.747 C 130.808 218.002,127.152 218.146,120.638 218.146 C 115.045 218.146,110.469 218.299,110.469 218.486 C 110.469 218.674,104.232 218.956,96.610 219.114 C 88.988 219.272,82.581 219.567,82.373 219.770 C 82.165 219.973,79.708 220.140,76.913 220.140 C 73.956 220.140,71.729 220.306,71.585 220.538 C 71.446 220.763,69.521 220.937,67.175 220.937 C 64.885 220.937,63.011 221.091,63.011 221.279 C 63.011 221.467,60.005 221.748,56.331 221.905 C 52.657 222.061,49.481 222.356,49.272 222.560 C 49.064 222.764,47.773 222.931,46.404 222.931 C 45.035 222.931,43.805 223.111,43.669 223.330 C 43.533 223.549,42.446 223.729,41.253 223.729 C 40.059 223.729,39.083 223.908,39.083 224.128 C 39.083 224.347,38.410 224.534,37.587 224.544 C 36.765 224.554,35.374 224.820,34.497 225.136 C 33.619 225.452,32.587 225.714,32.203 225.717 C 31.820 225.720,31.505 225.902,31.505 226.122 C 31.505 226.341,31.147 226.520,30.708 226.520 C 30.184 226.520,29.910 226.786,29.910 227.295 C 29.910 227.720,29.734 228.177,29.520 228.310 C 28.284 229.074,31.850 231.306,34.305 231.306 C 34.959 231.306,35.494 231.486,35.494 231.705 C 35.494 231.924,36.086 232.104,36.810 232.104 C 37.533 232.104,38.296 232.267,38.504 232.466 C 38.926 232.868,40.785 233.112,48.554 233.780 C 51.461 234.030,53.838 234.384,53.838 234.565 C 53.838 234.747,55.633 234.895,57.827 234.895 C 60.219 234.895,61.815 235.055,61.815 235.294 C 61.815 235.535,63.476 235.693,66.002 235.693 C 68.528 235.693,70.189 235.851,70.189 236.092 C 70.189 236.336,72.059 236.491,75.001 236.491 C 77.648 236.491,80.121 236.655,80.496 236.856 C 80.872 237.057,87.058 237.353,94.242 237.513 C 101.426 237.673,107.398 237.958,107.514 238.145 C 107.629 238.332,112.110 238.485,117.471 238.485 C 123.469 238.485,127.218 238.633,127.218 238.869 C 127.218 239.443,151.123 239.707,202.991 239.707 C 255.008 239.706,279.163 239.441,279.163 238.870 C 279.163 238.633,282.917 238.485,288.933 238.485 C 294.307 238.485,298.704 238.332,298.704 238.146 C 298.704 237.960,304.558 237.678,311.712 237.520 C 318.867 237.362,325.159 237.066,325.696 236.862 C 326.233 236.657,328.814 236.491,331.432 236.491 C 334.339 236.491,336.191 236.335,336.191 236.092 C 336.191 235.851,337.853 235.693,340.379 235.693 C 342.905 235.693,344.566 235.535,344.566 235.294 C 344.566 235.056,346.087 234.895,348.331 234.895 C 350.402 234.895,352.193 234.739,352.311 234.548 C 352.429 234.357,354.862 234.072,357.718 233.914 C 360.574 233.756,362.911 233.463,362.911 233.264 C 362.911 233.064,363.898 232.901,365.105 232.901 C 366.311 232.901,367.298 232.722,367.298 232.502 C 367.298 232.283,368.106 232.104,369.093 232.104 C 370.080 232.104,370.887 231.948,370.887 231.757 C 370.887 231.566,371.734 231.314,372.769 231.198 C 373.803 231.081,374.716 230.789,374.796 230.548 C 374.876 230.307,375.286 230.110,375.706 230.110 C 376.346 230.110,376.471 229.818,376.471 228.315 C 376.471 226.786,376.352 226.520,375.673 226.520 C 375.234 226.520,374.875 226.361,374.875 226.167 C 374.875 225.800,374.449 225.683,370.023 224.835 C 368.560 224.555,367.229 224.192,367.065 224.027 C 366.901 223.863,365.820 223.729,364.663 223.729 C 363.506 223.729,362.449 223.549,362.313 223.330 C 362.178 223.111,361.078 222.931,359.870 222.931 C 358.663 222.931,357.360 222.763,356.977 222.558 C 356.593 222.352,353.374 222.057,349.824 221.901 C 346.274 221.745,343.370 221.464,343.370 221.277 C 343.370 221.090,341.396 220.937,338.983 220.937 C 336.324 220.937,334.596 220.780,334.596 220.538 C 334.596 220.293,332.629 220.140,329.492 220.140 C 326.684 220.140,324.216 219.973,324.008 219.770 C 323.800 219.567,317.393 219.272,309.771 219.114 C 302.149 218.956,295.912 218.674,295.912 218.486 C 295.912 218.299,291.347 218.146,285.766 218.146 C 279.433 218.146,275.528 217.996,275.374 217.747 C 275.216 217.491,269.263 217.348,258.824 217.348 C 248.384 217.348,242.431 217.204,242.273 216.949 C 242.112 216.688,228.651 216.550,203.190 216.550 C 177.730 216.550,164.269 216.688,164.108 216.949 M164.110 247.254 C 163.950 247.514,158.433 247.657,148.554 247.657 C 138.780 247.657,133.158 247.801,133.001 248.056 C 132.848 248.304,129.142 248.455,123.207 248.455 C 117.956 248.455,113.659 248.607,113.659 248.794 C 113.659 248.981,107.879 249.263,100.814 249.423 C 93.749 249.582,87.660 249.878,87.281 250.080 C 86.903 250.283,84.517 250.449,81.980 250.449 C 79.171 250.449,77.368 250.605,77.368 250.847 C 77.368 251.087,75.773 251.246,73.380 251.246 C 71.186 251.246,69.392 251.400,69.392 251.588 C 69.392 251.775,66.565 252.057,63.111 252.213 C 59.656 252.369,56.659 252.664,56.451 252.868 C 56.242 253.073,55.041 253.240,53.782 253.240 C 52.523 253.240,51.382 253.420,51.246 253.639 C 51.111 253.858,50.113 254.038,49.029 254.038 C 47.946 254.038,47.059 254.192,47.059 254.381 C 47.059 254.570,46.077 254.825,44.877 254.949 C 42.484 255.196,39.880 256.010,39.880 256.511 C 39.880 256.686,39.525 256.830,39.090 256.830 C 38.203 256.830,37.659 258.276,38.065 259.555 C 38.338 260.417,40.907 261.615,42.481 261.615 C 43.025 261.615,43.470 261.795,43.470 262.014 C 43.470 262.233,44.177 262.413,45.041 262.413 C 45.906 262.413,46.724 262.592,46.859 262.812 C 46.995 263.031,47.803 263.210,48.654 263.210 C 49.506 263.210,50.303 263.374,50.426 263.573 C 50.550 263.773,52.983 264.065,55.834 264.222 C 58.685 264.380,61.017 264.666,61.017 264.857 C 61.017 265.048,62.532 265.204,64.383 265.204 C 66.235 265.204,67.860 265.384,67.996 265.603 C 68.132 265.823,69.901 266.002,71.928 266.002 C 73.955 266.002,75.784 266.167,75.992 266.368 C 76.200 266.570,80.992 266.864,86.640 267.022 C 92.288 267.180,96.909 267.464,96.909 267.653 C 96.909 267.841,100.050 267.996,103.888 267.996 C 108.275 267.996,110.867 268.144,110.867 268.395 C 110.867 268.649,114.164 268.794,119.960 268.794 C 125.126 268.794,129.216 268.956,129.432 269.170 C 130.639 270.369,271.984 270.369,271.984 269.170 C 271.984 268.945,275.677 268.794,281.157 268.794 C 287.006 268.794,290.329 268.649,290.329 268.395 C 290.329 268.144,292.913 267.996,297.285 267.996 C 301.110 267.996,304.335 267.842,304.451 267.654 C 304.567 267.466,309.199 267.183,314.744 267.025 C 320.289 266.868,324.996 266.573,325.204 266.370 C 325.413 266.168,327.342 266.002,329.492 266.002 C 331.831 266.002,333.400 265.842,333.400 265.603 C 333.400 265.369,334.788 265.204,336.766 265.204 C 338.618 265.204,340.227 265.051,340.344 264.863 C 340.460 264.675,342.758 264.394,345.452 264.238 C 348.145 264.082,350.519 263.787,350.728 263.583 C 350.936 263.378,351.878 263.210,352.822 263.210 C 353.765 263.210,354.536 263.031,354.536 262.812 C 354.536 262.592,355.344 262.413,356.331 262.413 C 357.318 262.413,358.126 262.254,358.126 262.059 C 358.126 261.865,358.933 261.585,359.920 261.437 C 360.907 261.289,361.715 260.999,361.715 260.793 C 361.715 260.587,361.984 260.419,362.313 260.419 C 362.756 260.419,362.911 259.953,362.911 258.624 C 362.911 257.295,362.756 256.830,362.313 256.830 C 361.984 256.830,361.715 256.694,361.715 256.528 C 361.715 256.057,358.563 255.176,356.032 254.939 C 354.771 254.821,353.739 254.570,353.739 254.381 C 353.739 254.192,352.931 254.038,351.944 254.038 C 350.957 254.038,350.150 253.874,350.150 253.673 C 350.150 253.277,348.411 253.082,338.983 252.423 C 335.583 252.186,332.490 251.824,332.109 251.619 C 331.728 251.414,329.810 251.246,327.845 251.246 C 325.881 251.246,324.163 251.067,324.028 250.847 C 323.887 250.619,321.822 250.449,319.193 250.449 C 316.669 250.449,314.294 250.283,313.915 250.080 C 313.537 249.878,307.447 249.582,300.382 249.423 C 293.318 249.263,287.537 248.981,287.537 248.794 C 287.537 248.607,283.230 248.455,277.966 248.455 C 272.000 248.455,268.395 248.308,268.395 248.065 C 268.395 247.327,164.564 246.519,164.110 247.254 M155.733 276.430 C 131.863 276.953,124.228 277.234,123.848 277.600 C 123.640 277.801,120.634 277.966,117.168 277.966 C 113.234 277.966,110.867 278.116,110.867 278.365 C 110.867 278.610,108.873 278.764,105.683 278.764 C 102.832 278.764,100.499 278.918,100.499 279.108 C 100.499 279.297,97.044 279.582,92.822 279.740 C 88.599 279.899,85.085 280.193,85.012 280.393 C 84.939 280.594,83.458 280.758,81.722 280.758 C 79.883 280.758,78.564 280.924,78.564 281.157 C 78.564 281.378,77.501 281.555,76.171 281.555 C 74.855 281.555,73.779 281.709,73.779 281.897 C 73.779 282.085,72.119 282.364,70.090 282.516 C 68.061 282.669,66.230 282.964,66.022 283.172 C 65.814 283.379,65.228 283.549,64.720 283.549 C 63.869 283.549,62.286 284.222,61.815 284.784 C 61.705 284.915,61.134 285.140,60.545 285.283 C 58.785 285.714,58.732 289.133,60.486 289.133 C 60.778 289.133,61.017 289.312,61.017 289.531 C 61.017 289.751,61.466 289.930,62.014 289.930 C 62.562 289.930,63.011 290.110,63.011 290.329 C 63.011 290.548,63.603 290.728,64.327 290.728 C 65.051 290.728,65.826 290.910,66.049 291.133 C 66.272 291.357,67.923 291.652,69.718 291.791 C 71.513 291.929,72.981 292.195,72.981 292.382 C 72.981 292.569,74.058 292.722,75.374 292.722 C 76.703 292.722,77.767 292.899,77.767 293.121 C 77.767 293.350,79.003 293.519,80.678 293.519 C 82.279 293.519,83.760 293.687,83.968 293.892 C 84.176 294.097,87.622 294.392,91.625 294.548 C 95.628 294.705,98.903 294.986,98.903 295.173 C 98.903 295.360,101.136 295.513,103.865 295.513 C 106.742 295.513,108.930 295.681,109.073 295.912 C 109.220 296.150,111.791 296.311,115.444 296.311 C 118.950 296.311,121.625 296.473,121.702 296.690 C 121.781 296.917,129.789 297.182,141.690 297.351 C 152.611 297.506,161.640 297.785,161.754 297.969 C 162.025 298.409,239.681 298.408,239.681 297.969 C 239.681 297.784,248.609 297.505,259.521 297.349 C 271.050 297.185,279.521 296.908,279.741 296.688 C 279.949 296.481,282.776 296.311,286.022 296.311 C 289.691 296.311,291.924 296.160,291.924 295.912 C 291.924 295.667,293.918 295.513,297.109 295.513 C 299.960 295.513,302.293 295.360,302.293 295.173 C 302.293 294.986,305.559 294.704,309.552 294.546 C 313.544 294.388,317.121 294.093,317.501 293.889 C 317.882 293.686,319.371 293.519,320.811 293.519 C 322.291 293.519,323.430 293.346,323.430 293.121 C 323.430 292.896,324.560 292.722,326.022 292.722 C 327.448 292.722,328.614 292.568,328.614 292.380 C 328.614 292.193,330.095 291.916,331.904 291.766 C 333.714 291.616,335.254 291.321,335.327 291.111 C 335.400 290.900,336.073 290.728,336.823 290.728 C 337.572 290.728,338.185 290.548,338.185 290.329 C 338.185 290.110,338.600 289.930,339.107 289.930 C 341.496 289.930,342.959 285.540,340.678 285.217 C 340.184 285.146,339.781 284.922,339.781 284.718 C 339.781 284.514,339.332 284.347,338.784 284.347 C 338.235 284.347,337.787 284.167,337.787 283.948 C 337.787 283.729,337.259 283.549,336.614 283.549 C 335.969 283.549,335.338 283.383,335.213 283.180 C 335.087 282.977,333.372 282.685,331.400 282.530 C 329.429 282.376,327.817 282.094,327.817 281.903 C 327.817 281.712,326.661 281.555,325.248 281.555 C 323.835 281.555,322.568 281.376,322.433 281.157 C 322.297 280.937,320.976 280.758,319.498 280.758 C 318.019 280.758,316.639 280.591,316.431 280.388 C 316.222 280.185,312.682 279.890,308.562 279.733 C 304.443 279.576,300.978 279.293,300.862 279.105 C 300.746 278.917,298.328 278.764,295.490 278.764 C 292.315 278.764,290.329 278.610,290.329 278.365 C 290.329 278.116,287.963 277.966,284.028 277.966 C 280.530 277.966,277.556 277.796,277.344 277.583 C 277.133 277.372,273.104 277.113,268.391 277.008 C 263.677 276.902,253.001 276.647,244.666 276.439 C 227.520 276.013,174.979 276.007,155.733 276.430 M172.682 304.284 C 172.328 304.514,167.398 304.676,160.618 304.680 C 153.244 304.684,149.153 304.828,149.153 305.085 C 149.153 305.336,146.427 305.484,141.775 305.484 C 137.717 305.484,134.397 305.637,134.397 305.824 C 134.397 306.011,130.141 306.295,124.940 306.454 C 119.738 306.613,115.174 306.908,114.797 307.110 C 114.419 307.312,112.673 307.478,110.917 307.478 C 109.161 307.478,107.613 307.657,107.478 307.876 C 107.342 308.096,105.906 308.275,104.287 308.275 C 102.668 308.275,101.232 308.455,101.097 308.674 C 100.961 308.893,99.705 309.073,98.305 309.073 C 96.905 309.073,95.662 309.231,95.543 309.424 C 95.424 309.617,93.619 309.903,91.531 310.059 C 89.444 310.216,87.737 310.506,87.737 310.705 C 87.737 310.904,87.109 311.067,86.341 311.067 C 85.573 311.067,84.945 311.246,84.945 311.466 C 84.945 311.685,84.497 311.864,83.948 311.864 C 83.400 311.864,82.951 312.044,82.951 312.263 C 82.951 312.483,82.442 312.662,81.821 312.662 C 81.068 312.662,80.335 313.061,79.627 313.855 C 78.526 315.091,78.273 315.852,78.963 315.852 C 79.182 315.852,79.362 316.211,79.362 316.650 C 79.362 317.093,79.628 317.448,79.960 317.448 C 80.289 317.448,80.558 317.616,80.558 317.822 C 80.558 318.028,81.366 318.317,82.353 318.466 C 83.340 318.614,84.148 318.894,84.148 319.088 C 84.148 319.283,84.765 319.442,85.520 319.442 C 86.275 319.442,87.003 319.621,87.139 319.840 C 87.274 320.060,88.082 320.239,88.933 320.239 C 89.785 320.239,90.592 320.419,90.728 320.638 C 90.863 320.857,91.783 321.037,92.772 321.037 C 93.760 321.037,94.885 321.206,95.271 321.413 C 95.657 321.619,98.247 321.915,101.027 322.069 C 103.807 322.223,106.082 322.503,106.082 322.690 C 106.082 322.878,107.697 323.031,109.671 323.031 C 111.798 323.031,113.260 323.193,113.260 323.430 C 113.260 323.669,114.864 323.829,117.274 323.829 C 119.482 323.829,121.598 323.994,121.976 324.196 C 122.354 324.399,127.995 324.694,134.512 324.854 C 141.029 325.013,146.361 325.296,146.361 325.483 C 146.361 325.670,151.117 325.823,156.929 325.823 C 163.709 325.823,167.498 325.965,167.498 326.221 C 167.498 326.484,178.789 326.620,200.575 326.620 C 222.196 326.620,233.737 326.482,233.898 326.221 C 234.052 325.972,238.016 325.823,244.467 325.823 C 250.144 325.823,254.883 325.670,254.998 325.484 C 255.113 325.298,260.462 325.017,266.885 324.860 C 273.309 324.703,278.735 324.407,278.943 324.202 C 279.152 323.996,281.250 323.829,283.606 323.829 C 286.031 323.829,287.996 323.656,288.136 323.430 C 288.271 323.210,289.867 323.031,291.682 323.031 C 293.497 323.031,295.115 322.896,295.278 322.732 C 295.441 322.567,297.939 322.214,300.828 321.948 C 308.195 321.267,310.014 321.012,310.449 320.599 C 310.657 320.401,311.509 320.239,312.343 320.239 C 313.176 320.239,313.858 320.060,313.858 319.840 C 313.858 319.621,314.576 319.442,315.454 319.442 C 316.331 319.442,317.049 319.286,317.049 319.095 C 317.049 318.905,317.756 318.654,318.621 318.538 C 322.663 317.996,323.534 312.662,319.580 312.662 C 319.065 312.662,318.644 312.483,318.644 312.263 C 318.644 312.044,318.195 311.864,317.647 311.864 C 317.099 311.864,316.650 311.685,316.650 311.466 C 316.650 311.246,316.058 311.067,315.334 311.067 C 314.610 311.067,313.842 310.891,313.627 310.676 C 313.412 310.461,311.402 310.164,309.160 310.018 C 306.919 309.871,305.085 309.598,305.085 309.412 C 305.085 309.225,304.008 309.073,302.692 309.073 C 301.363 309.073,300.299 308.896,300.299 308.674 C 300.299 308.441,298.970 308.275,297.109 308.275 C 295.248 308.275,293.918 308.109,293.918 307.876 C 293.918 307.642,292.514 307.478,290.502 307.478 C 288.623 307.478,286.775 307.311,286.395 307.108 C 286.015 306.904,281.360 306.608,276.052 306.450 C 270.744 306.292,266.401 306.010,266.401 305.823 C 266.401 305.636,263.296 305.484,259.501 305.484 C 255.577 305.484,252.435 305.317,252.215 305.097 C 251.477 304.358,173.787 303.564,172.682 304.284 M189.033 329.811 C 189.033 330.058,186.847 330.209,183.274 330.209 C 180.106 330.209,177.420 330.363,177.304 330.550 C 177.189 330.737,174.441 331.018,171.199 331.174 C 167.957 331.330,165.244 331.626,165.171 331.831 C 165.098 332.036,163.976 332.203,162.679 332.203 C 161.371 332.203,160.319 332.381,160.319 332.602 C 160.319 332.822,159.511 333.001,158.524 333.001 C 157.537 333.001,156.730 333.160,156.730 333.353 C 156.730 333.547,155.565 333.830,154.142 333.983 C 152.718 334.135,151.452 334.425,151.327 334.628 C 151.202 334.830,150.661 334.995,150.126 334.995 C 149.591 334.995,149.153 335.174,149.153 335.394 C 149.153 335.613,148.821 335.793,148.416 335.793 C 147.710 335.793,145.181 336.876,144.766 337.357 C 144.656 337.483,144.207 337.785,143.769 338.027 C 143.330 338.269,142.914 338.852,142.844 339.323 C 142.774 339.794,142.549 340.179,142.345 340.179 C 141.195 340.179,142.994 344.022,144.444 344.664 C 145.060 344.937,145.563 345.293,145.563 345.457 C 145.563 345.620,146.285 345.869,147.167 346.010 C 148.050 346.151,148.868 346.422,148.986 346.613 C 149.103 346.803,149.638 346.959,150.173 346.959 C 150.708 346.959,151.147 347.139,151.147 347.358 C 151.147 347.577,151.585 347.757,152.120 347.757 C 152.655 347.757,153.195 347.921,153.319 348.122 C 153.443 348.323,154.892 348.613,156.539 348.767 C 158.186 348.922,159.631 349.206,159.750 349.399 C 159.870 349.593,160.843 349.751,161.914 349.751 C 162.985 349.751,163.972 349.930,164.108 350.150 C 164.243 350.369,165.510 350.548,166.923 350.548 C 168.336 350.548,169.492 350.715,169.492 350.918 C 169.492 351.121,170.972 351.380,172.782 351.493 C 174.591 351.606,178.764 351.874,182.054 352.089 C 189.526 352.576,215.599 352.575,223.330 352.088 C 226.510 351.887,230.683 351.626,232.602 351.506 C 234.521 351.387,236.092 351.123,236.092 350.919 C 236.092 350.715,237.258 350.548,238.684 350.548 C 240.146 350.548,241.276 350.375,241.276 350.150 C 241.276 349.930,242.173 349.751,243.270 349.751 C 244.367 349.751,245.264 349.606,245.264 349.428 C 245.264 349.251,246.745 348.905,248.554 348.660 C 253.027 348.053,254.437 347.730,254.437 347.313 C 254.437 347.118,254.975 346.959,255.633 346.959 C 256.291 346.959,256.830 346.803,256.830 346.611 C 256.830 346.420,257.504 346.156,258.329 346.024 C 259.165 345.890,260.087 345.426,260.411 344.976 C 260.731 344.531,261.248 344.167,261.560 344.167 C 262.483 344.167,263.184 342.882,263.198 341.166 C 263.210 339.575,262.345 337.787,261.564 337.787 C 261.341 337.787,260.890 337.517,260.561 337.188 C 260.232 336.859,259.527 336.590,258.994 336.590 C 258.462 336.590,258.025 336.456,258.023 336.291 C 258.019 335.892,256.051 334.995,255.178 334.995 C 254.796 334.995,254.382 334.830,254.257 334.628 C 254.132 334.425,252.865 334.135,251.441 333.983 C 250.018 333.830,248.853 333.547,248.853 333.353 C 248.853 333.160,247.956 333.001,246.859 333.001 C 245.763 333.001,244.865 332.822,244.865 332.602 C 244.865 332.383,243.893 332.203,242.705 332.203 C 241.517 332.203,240.485 332.032,240.412 331.823 C 240.339 331.614,237.453 331.318,233.998 331.165 C 230.543 331.012,227.717 330.734,227.717 330.548 C 227.717 330.362,225.204 330.209,222.134 330.209 C 218.677 330.209,216.550 330.057,216.550 329.811 C 216.550 329.552,211.698 329.412,202.792 329.412 C 193.885 329.412,189.033 329.552,189.033 329.811 M209.427 336.672 C 217.911 340.556,211.785 347.569,200.546 346.841 C 188.263 346.045,187.486 336.668,199.601 335.437 C 203.231 335.069,206.944 335.535,209.427 336.672 " stroke="none" fill="#fb9404" fill-rule="evenodd"></path></g></svg>